/* XPM */
static char *xpm_[] = {
/* columns rows colors chars-per-pixel */
"64 64 186 2 ",
"   c #1E2425",
".  c #242627",
"X  c #262827",
"o  c #292628",
"O  c #262928",
"+  c #2B2929",
"@  c #272728",
"#  c #332B2C",
"$  c #3C2C2D",
"%  c #2C3C2D",
"&  c #3E332A",
"*  c #3F3132",
"=  c #432E2F",
"-  c #44352A",
";  c #49342E",
":  c #4A392C",
">  c #46392E",
",  c #51362F",
"<  c #553C2D",
"1  c #5C3D2E",
"2  c #452F30",
"3  c #4A2E32",
"4  c #453132",
"5  c #4A3233",
"6  c #473738",
"7  c #4C3839",
"8  c #4D373A",
"9  c #543333",
"0  c #5D3536",
"q  c #553931",
"w  c #593A31",
"e  c #533B3D",
"r  c #573739",
"t  c #502F31",
"y  c #613537",
"u  c #623639",
"i  c #633A3B",
"p  c #6D393B",
"a  c #6A3638",
"s  c #743B3C",
"d  c #7A3C3D",
"f  c #2D412F",
"g  c #2F4431",
"h  c #304430",
"j  c #384832",
"k  c #335735",
"l  c #355835",
"z  c #3C513F",
"x  c #39673A",
"c  c #3C693A",
"v  c #376739",
"b  c #3E7C3F",
"n  c #43452F",
"m  c #5B412C",
"M  c #444332",
"N  c #4D4B3D",
"B  c #484336",
"V  c #534133",
"C  c #59453C",
"Z  c #52533C",
"A  c #724B2F",
"S  c #604A3B",
"D  c #754C30",
"F  c #784E31",
"G  c #75403D",
"H  c #725031",
"J  c #6F4B2F",
"K  c #426A3C",
"L  c #7C3E41",
"P  c #3E7D40",
"I  c #554446",
"U  c #585945",
"Y  c #595757",
"T  c #6A4244",
"R  c #744A4C",
"E  c #7C4C4E",
"W  c #6D504E",
"Q  c #7A4E51",
"!  c #695859",
"~  c #466D44",
"^  c #407E40",
"/  c #487142",
"(  c #766061",
")  c #853D3F",
"_  c #865631",
"`  c #895632",
"'  c #8D5932",
"]  c #925B33",
"[  c #92623D",
"{  c #99653F",
"}  c #A66534",
"|  c #B16C3A",
" . c #843E41",
".. c #893F42",
"X. c #864042",
"o. c #8A4043",
"O. c #8D484A",
"+. c #924245",
"@. c #9F4548",
"#. c #944A4D",
"$. c #9B4C4E",
"%. c #9C4447",
"&. c #9D4E51",
"*. c #8F5A5C",
"=. c #8A5456",
"-. c #935C5D",
";. c #9D575A",
":. c #A44749",
">. c #A9474A",
",. c #A6484A",
"<. c #AB494C",
"1. c #A34346",
"2. c #B14B4E",
"3. c #A04E50",
"4. c #AE4D50",
"5. c #B14D50",
"6. c #A75558",
"7. c #B45255",
"8. c #B85457",
"9. c #B65559",
"0. c #B9565A",
"q. c #BA595C",
"w. c #997159",
"e. c #B97543",
"r. c #BC7846",
"t. c #AC7B55",
"y. c #9B5F60",
"u. c #AA5F62",
"i. c #A65E61",
"p. c #A56265",
"a. c #AB6164",
"s. c #AC676A",
"d. c #B46A6E",
"f. c #B96A6E",
"g. c #BB6467",
"h. c #BC6D71",
"j. c #B97375",
"k. c #AD7B7D",
"l. c #9A6769",
"z. c #C15E62",
"x. c #C36165",
"c. c #C5676A",
"v. c #CB696C",
"b. c #C6676A",
"n. c #CC6E71",
"m. c #C16F73",
"M. c #D16E73",
"N. c #C37679",
"B. c #CF787C",
"V. c #C97376",
"C. c #D37276",
"Z. c #D57579",
"A. c #DA767A",
"S. c #D3797D",
"D. c #DC797D",
"F. c #428442",
"G. c #468946",
"H. c #469346",
"J. c #489948",
"K. c #489548",
"L. c #B48058",
"P. c #D28E5A",
"I. c #DD9A66",
"U. c #B67F82",
"Y. c #DE7E82",
"T. c #E17E82",
"R. c #BE8B8D",
"E. c #CC9A9C",
"W. c #E28185",
"Q. c #E78589",
"!. c #E39599",
"~. c #C69FA1",
"^. c #E69EA1",
"/. c #E99FA2",
"(. c #C3AAAA",
"). c #C1AFB0",
"_. c #DAAFB0",
"`. c #C6C6C6",
"'. c #DFC7C8",
"]. c #E8CACB",
"[. c #EAD3D4",
"{. c #F3DEDF",
"}. c #F5DFE0",
"|. c #F5E2E3",
" X c #FEFFFF",
".X c #F6F1F1",
/* pixels */
"J.J.J.J.J.J.J.J.J.J.J.J.J.J.J.J.J.J.J.J.J.J.J.J.J.J.J.J.J.J.J.J.J.J.J.J.J.J.J.J.J.J.J.J.J.J.J.J.J.J.J.J.K.J.J.J.K.J.J.J.K.J.J.J.",
"J.J.J.K.K.J.J.H.J.J.J.J.J.J.J.H.J.J.J.J.J.J.J.J.J.J.J.J.F.P ^ ^ ^ F.b F.J.J.J.J.J.J.J.J.J.J.J.J.J.J.J.J.J.J.J.J.J.J.J.J.J.J.J.K.",
"J.K.K.J.J.J.J.J.J.J.J.H.J.J.J.J.J.J.J.J.J.J.J.J.J.J.J.F.l g f f g % g k F.J.J.J.J.J.J.J.J.J.J.J.J.J.J.J.J.J.K.J.J.J.J.K.J.J.J.J.",
"J.J.J.J.J.J.K.J.J.J.J.H.F.b b ^ ^ P ^ P ^ ^ F.P ^ F.F.K > 3 = = - 2 2 6 c P F.^ ^ ^ ^ ^ F.^ ^ b ^ ^ ^ F.K.J.J.J.K.J.J.J.J.J.K.J.",
"J.J.K.J.J.J.J.J.J.J.J.F.l f f f g g g f f f g g f f % V G .......... .s M f f f % h h f f g f g g f % k F.J.J.J.K.J.J.J.J.J.J.J.",
"K.J.J.J.K.J.J.J.J.K.H.~ j 6 * 4 * $ $ # $ # o o # $ = y %.7.7.7.5.7.7.#.r # $ # o o # $ # $ * * 4 * 2 z / H.K.J.J.J.J.J.K.J.K.J.",
"J.J.K.J.J.J.J.J.J.G.~ U W Q Q Q Q R p y y 9 # # 9 u a E 6.x.x.x.x.x.x.9.T 0 y 9 # # 9 y y p R R Q Q Q W U ~ G.J.J.J.K.J.J.J.J.J.",
"J.J.J.J.J.J.K.J.J.F.z I *.s.s.s.s.i.O.) ) p $ $ p  .o.&.c.C.n.n.n.M.C.g.@.) ) p $ $ p  . .O.i.s.s.s.s.*.I z ^ J.J.K.J.J.J.K.J.J.",
"J.J.J.J.J.J.J.J.J.F.g C p.Y.B.B.B.c.6.@.@.d $ 2 d %.@.9.n.D.D.D.A.D.D.n.4.%.%.d = = L @.@.6.c.B.B.S.S.p.e g F.J.J.J.J.J.J.J.J.J.",
"J.K.J.J.J.J.J.K.F.~ N R h.W.W.Y.W.C.9.<.<.+.0 0 $.q.q.x.Z.Q.!.!.^.!.Q.Z.g.9.8.$.0 0 +.<.>.9.C.W.T.W.W.h.R N K F.K.J.J.J.J.K.K.J.",
"J.J.J.K.J.J.J.F.k I *.h.Y.Y.Y.W.W.C.9.>.>.:.+.$.g.Z.Z.Z.D.!.].{.{.].!.S.C.C.C.c.$.+.:.<.>.9.C.W.W.W.T.Y.j.-.N k F.J.J.J.J.K.J.J.",
"J.H.J.J.J.J.J.P % e d.W.Z.C.C.C.C.v.7.@.o.+.1.9.Z.W.W.T.Y.^.}. X X}.^.T.Y.W.W.C.0.1.o.o.:.7.v.Z.C.C.C.A.T.f.e % P J.J.J.J.J.J.J.",
"J.J.J.J.J.J.J.P % e d.D.x.7.9.0.8.9.2.+.0 9 o.9.C.W.W.Y.D./.|. X X{.^.T.Y.W.W.C.0.o.9 0 o.5.7.0.9.0.9.x.D.d.e f P J.J.J.H.J.J.J.",
"J.J.K.J.J.J.J.P g r u.b.&. . .....o.o.s 9 0 +.9.v.C.C.n.f.U.).`.`.).U.f.n.C.C.v.8.o.0 q L .... ... ...$.b.a.e % b J.J.J.J.J.J.J.",
"J.J.J.J.J.J.J.P f 3 #.3.i = = 3 4 = = 9 s +.@.4.7.9.7.#.p I Y Y Y Y I p 3.0.0.7.<.:.o.d 9 2 2 2 2 2 = a &.#.4 f b J.J.J.J.H.J.J.",
"J.H.J.J.J.J.J.F.k M s s $ . . . . + $ 0 +.<.<.:.o.X.X.a # . . . o . . $ s ....+.:.<.<.+.0 $ o . . O . $ p G M k F.J.J.J.J.J.K.J.",
"J.J.J.J.J.H.J.H.F.K B = + . . . . $ s +.:.<.<.o.0 = = $ + . . . . . . + $ 4 2 0 o.<.<.:.+.p * . . . O + = > K G.K.J.J.J.K.K.J.J.",
"J.J.K.J.J.J.J.J.J.^ f . o o O O . 5 o.<.<.<.<.o.4   . . . O . O . O O . . .   2 o.<.<.<.<.o.3 . O O o o . f ^ J.J.J.J.J.J.J.J.J.",
"J.J.J.J.J.J.J.J.J.F.f . . O + O O 2 o.<.<.<.<.o.2 . . O . . . . . o . O .     2 o.<.<.<.<.o.2 . O + O . . f ^ J.J.J.J.J.K.J.J.K.",
"H.J.J.J.J.J.J.J.J.F.l f + O . . . ; ..<.<.:.+.d 9 = 4 4 4 - 5 2 2 ; 3 - 4 4 2 9 L +.,.<.<.o.- O . . O + f l F.J.J.J.J.J.J.J.J.J.",
"J.J.H.J.J.J.J.J.J.K.F.c % . O O . 2 ..<.<.+.0 9 s o.o.o.o. .X.o.....o.o...o.o.L 9 0 +.<.<.o.= O . . . % c G.K.J.J.J.J.K.J.J.H.J.",
"J.J.J.J.J.J.J.K.J.K.F.K N 7 * # + 5 o.,.+.d 5 0 +.<.<.<.<.<.<.<.<.>.<.<.<.<.<.+.0 5 d +.,...= # 6 e e N K F.K.J.H.J.J.J.J.J.J.J.",
"J.J.J.J.J.J.J.J.J.F.l N -.p.R 7 + 5 o.+.0 9 s +.:.<.<.:.>.>.:.<.,.<.,.>.<.<.<.:.+.s 9 y +.o.= 6 *.f.f.-.Z k F.J.J.J.J.J.J.H.J.J.",
"J.H.J.K.J.J.J.J.J.b f e h.V.=.e # = o.o.2 2 o.<.<.<.:.<.7.9.9.9.7.9.7.7.<.,.,.<.<.X.2 2 ....$ r d.W.Q.d.e % b J.J.J.J.J.J.J.J.J.",
"J.J.J.J.J.J.J.J.J.b f C f.V.=.e + = ..o.2 = o.<.<.:.,.7.b.C.C.n.C.C.C.c.7.,.,.<.<.o.= 2 ....= 8 f.Q.Q.d.e f ^ J.J.J.J.J.J.J.J.J.",
"J.J.K.J.J.J.J.H.F.v % q u.m.l.( ! ! &.o.= 2 X.<.<.<.5.g.Z.W.W.Y.Y.Y.Y.Z.g.5.<.<.<.o.= - ..#.! ( f.C.Z.u.7 % v F.H.J.J.J.J.J.J.J.",
"J.J.J.J.J.J.J.F.l % O 4 #.g.R.(.).(.d.) = 2  .<.<.7.b.Z.S.W.Y.Y.Y.Y.W.Y.Z.c.7.,.>. .2 =  .d.(.).h.7.7.#.; O f l F.J.J.J.J.K.J.J.",
"J.H.J.J.J.J.J.F.h . . = ) a.E.]..X[.j.) = 2 X.>.,.9.C.W.Y.Y.Y.Y.Y.Y.Y.Y.W.C.7.<.<.X.2 = ..N.[.[.j.>.>...- . O j ^ J.J.J.J.J.J.J.",
"J.J.J.H.J.J.J.F.j # + - ) 9.E.]..X].N.X.= = o.<.>.9.C.W.T.Y.Y.Y.Y.Y.Y.Y.W.Z.9.<.<.o.2 = o.N.].].j...>...; + # n F.J.J.J.J.K.J.J.",
"J.J.J.J.J.H.G.K Z S < 1 s =.k.(._._.V.#.5 - ..<.<.7.b.C.D.T.Y.Y.Y.Y.Y.Y.Z.c.7.,.<. .= 4 #.V._.(.y.d ) s 1 V C Z K F.H.J.J.J.J.J.",
"J.J.J.J.J.F.k Z t.L.w.F , q E ;.d.V.Z.p.8 2  .<.>.,.7.g.Z.W.W.W.Y.W.T.Z.g.7.<.,.<...- e a.Z.V.y.r = $ , H { L.w.Z l P J.J.J.K.J.",
"K.J.J.J.J.b f 7 t.P.| _ - + 3 a d $.c.a.e $ p +.:.<.,.7.b.C.C.C.C.C.C.b.5.,.<.:.+.p $ 7 a.b.:.a $     - _ e.P.L.V f b J.J.J.J.J.",
"J.J.J.J.J.P f ; ] e.| ` - . # # $ y 3.#.6 + $ 0 #.<.<.4.7.9.9.7.9.9.7.7.4.<.<.+.0 $ + 5 #.3.y $ . .   - ` | e.[ - f ^ J.J.J.J.J.",
"J.J.J.J.J.b f - _ } ' F C e 6 4 - 9 d s = . . $ s o.o.+.@.>.<.>.>.,.,.:.+.....s $ . . & s d 9 4 7 e e C H ` } _ - f ^ J.J.J.J.J.",
"J.J.J.J.J.^ f - _ ' m C ;.a.6.#.o.s 9 $ + . O + $ 3 8 p +.<.<.>.>.<.<.+.0 2 2 $ + . O + $ 9 s #.u.f.d.-.C m ] ` - % P J.J.J.J.J.",
"J.J.J.H.G.K n < F D q T h.D.M.x.z.&.0 $ + # $ = + O + 5 s .... . .o...s $ . . + = $ # + $ 0 &.x.A.Q.Q.f.G , A A < n K F.K.J.J.J.",
"J.J.J.F.l M H F < q s &.V.W.D.A.Z.c.&.p $ $ s s $ . . + $ 2 2 2 2 2 2 $ +     & s s = $ p &.c.A.T.W.W.C.&.s 9 V F H n k F.J.J.J.",
"J.J.J.b f - ' ` - 2 ..7.v.Z.Z.Z.Z.v.8...= 4 o.+.y - 2 2 2 = = 2 * 2 2 & 4 = 2 0 +.o.4 = ..9.v.Z.C.C.Z.v.9...2 - ` ` - f b J.J.J.",
"J.J.J.P % ; ` _ - 2 ..5.0.q.q.q.q.8.2...4 2 o.,.o. . .L L L  .L L  .L ) X.X. .o.:.o.4 = ..5.0.q.q.q.q.0.5...2 - ` ` > f ^ J.J.J.",
"J.J.J.P f > ` _ - 2 X.<.<.<.<.<.4.<.<...2 2 o.<.:.,.:.:.:.:.:.:.:.:.:.:.@.:.:.,.<.o.= 2 o.<.<.<.<.<.<.<.<. .2 - _ ` - g P J.J.J.",
"J.J.J.P g - _ _ - 2 X.<.<.<.<.<.<.<.<.o.2 2 ..<.<.,.,.,.,.,.,.,.:.,.,.,.<.:.<.<.<.o.2 2 o.<.<.<.<.<.<.<.<.X.4 - _ ` - f b J.J.J.",
"J.J.J.P f - ` _ - 2 X.:.+. . . . ... .p $ * s +.,.<.<.4.7.9.9.9.7.9.9.7.<.>.<.:.+.s $ $ p o.o. .X. .X.+.,.X.2 - _ ` ; g b J.J.J.",
"J.J.J.P f - ` _ - 4 ..+.0 2 2 = 2 = = $ + + $ y +.<.4.q.n.C.C.C.C.C.C.v.9.<.<.+.i $ + + $ 2 = 2 2 2 = 0 +.o.2 & _ ` > f F.J.J.J.",
"J.J.J.F.g > _ ] m 9 L L 9 4 6 7 e e e 6 # O . $ s o.o.&.c.A.Y.T.W.T.A.g.$.X.o.p $ . O # 6 e e 7 4 = 2 9 L d w m ] ` - % P J.J.J.",
"J.J.J.P f - ` } ] D w 9 s +.;.6.s.f.d.*.7 . O + $ - 5 p $.c.A.W.Q.A.x.$.0 4 2 $ + . . 6 *.d.d.a.#. .o.s 9 9 A ] } _ - g P J.J.J.",
"J.J.J.F.l n J ] } ` & - o.7.z.v.C.D.W.f.e O . + & > ; w d #.6.f.d.i.#.s q - - & + . . C h.W.D.v.9.<.<.o.* - ` } ] D n l F.J.J.J.",
"J.J.J.J.F.c M 1 ] ` & 2 o.2.7.7.0.x.D.f.e . . - J _ _ J , 4 5 e e 8 2 9 D ' ` A & .   e f.D.x.8.2.2.2...2 - _ ] m M c F.K.J.J.J.",
"J.J.J.J.J.F.k n H D < w d o.o.....#.a.-.7 . . & A ` _ J < > M n > & - < H ' ' F w $ + 6 -.a.#.....o.o.d < < H H M k F.J.J.J.J.J.",
"J.J.J.J.J.J.F.c n V F F w 4 = 4 - 5 e 6 # o . # & : : m H [ L.t.[ _ _ F < > - w G s = + 6 e 5 = 2 2 2 w F F 1 j K F.J.J.J.J.J.J.",
"J.J.J.J.J.J.J.P f - ` ' - . . . . . . . o . + O . O + : ' r.I.I.r.} } ` -   . 2 +.o.4 . . . O . . . . > ' ` - f b J.J.J.J.J.J.J.",
"K.J.J.J.J.J.J.b f - ' ' - . . O O . . O O . . . . . + : ' r.I.I.r.} } ` -     2 o.+.; . . . O O . . . - ' ' - f b J.J.J.J.J.J.J.",
"J.J.K.K.J.J.J.F.l n A A - . . + + + . + $ 5 4 = = = ; 1 H $.t.t.[ _ _ D q = = y +.+.y $ + . O O o . . - A H n l F.J.J.J.J.J.J.J.",
"J.J.J.K.J.J.J.H.F.K n = + o o o + O . $ s o.........X.p < > V B : - - < d ....+.:.:.+.s $ O O + . o o + $ M K F.H.J.J.J.J.J.J.H.",
"J.J.J.J.J.J.J.J.J.F.k g f f f % + + $ i +.5.8.q.0.0.9.O.4 . . . O . . 5 $.q.0.0.0.7.5.+.y = + + % h h h % k F.J.J.J.H.J.J.J.J.J.",
"K.J.J.J.J.J.J.J.J.K.F.^ ^ F.^ c % $ s %.,.8.v.A.A.C.n.;.7   . . O .   e u.A.A.Z.Z.v.7.<.+.s $ % x F.^ F.K H.K.J.J.J.J.J.H.J.J.J.",
"J.J.J.K.K.J.J.K.J.J.J.J.J.J.J.F.l 6 s ....#.i.d.d.d.s.=.6 . O O O . . 7 -.h.d.d.d.u.#...o.G 6 l F.J.J.J.J.J.J.J.J.J.J.J.J.J.J.J.",
"J.J.J.J.J.J.J.J.J.J.J.J.J.J.J.K.G.K M 3 3 5 r e C e e 4 # o o + O . . # 7 e I e e e 5 = 3 > c F.K.J.J.J.J.J.J.J.J.J.J.H.J.J.J.J.",
"H.J.J.J.J.J.J.H.J.J.J.J.J.J.J.J.J.F.l % . . . . . . . X O X + X + + o O O . . . . . . O % l G.J.J.J.J.H.J.J.H.J.J.J.J.J.J.J.J.J.",
"J.J.H.J.K.J.J.J.J.J.J.J.J.J.J.J.J.J.F.x % . . o . . X X + O X o . + . O . O . . o o o % x G.K.J.J.J.J.J.J.J.J.J.J.J.J.J.J.J.H.J.",
"J.J.J.J.J.J.J.J.J.J.K.J.J.J.J.J.J.J.J.F.l % h % + . o o o . X X o o o o o . + + % h % l F.J.J.J.J.J.J.J.J.J.J.J.J.H.J.J.J.J.J.J.",
"J.K.J.J.J.H.J.J.J.J.J.J.K.J.J.J.J.J.J.K.F.F.^ c % o . . X X X X X O O O o o o % c F.^ F.H.J.J.J.J.J.J.J.J.J.J.J.J.J.J.J.H.J.J.J.",
"J.J.J.J.J.J.J.J.J.J.J.H.J.J.J.H.J.J.J.J.J.J.J.F.l g h h g g h h h h h h h f f k F.J.J.J.J.J.J.J.J.J.J.J.J.K.J.H.J.J.H.J.J.J.J.J.",
"J.J.J.H.J.J.J.J.J.H.J.J.J.J.J.J.J.J.J.J.J.J.J.J.F.^ ^ ^ F.b F.G.F.K F.K F.F.K H.H.J.J.J.J.J.K.J.J.J.J.J.J.J.J.J.J.J.K.J.J.J.J.H.",
"J.J.J.J.K.J.J.J.J.J.J.J.K.J.J.J.J.J.J.J.J.J.J.J.J.J.J.J.J.J.J.J.J.J.J.J.J.J.J.J.J.J.J.J.H.J.J.J.J.J.J.H.J.J.J.H.J.J.J.J.J.J.J.J."
};
