/* XPM */
static char *xpm_[] = {
/* columns rows colors chars-per-pixel */
"64 64 198 2 ",
"   c #191A1A",
".  c #1E2425",
"X  c #242627",
"o  c #262827",
"O  c #292628",
"+  c #262928",
"@  c #2B2929",
"#  c #272728",
"$  c #332B2C",
"%  c #3C2C2D",
"&  c #2C3C2D",
"*  c #3E332A",
"=  c #3F3132",
"-  c #432E2E",
";  c #44352A",
":  c #49342E",
">  c #4A392C",
",  c #46392E",
"<  c #553C2D",
"1  c #573A2E",
"2  c #452F30",
"3  c #4A2E32",
"4  c #453233",
"5  c #4A3334",
"6  c #473738",
"7  c #4C3839",
"8  c #4D373A",
"9  c #533333",
"0  c #5D3536",
"q  c #553931",
"w  c #533B3D",
"e  c #593836",
"r  c #502F31",
"t  c #613537",
"y  c #623639",
"u  c #633A3B",
"i  c #6D393B",
"p  c #6A3638",
"a  c #743B3C",
"s  c #7C3D3E",
"d  c #2D412F",
"f  c #2F4431",
"g  c #304430",
"h  c #384832",
"j  c #335735",
"k  c #355835",
"l  c #3C513F",
"z  c #39673A",
"x  c #3C693A",
"c  c #376739",
"v  c #3E7C3F",
"b  c #43452F",
"n  c #5B412C",
"m  c #444332",
"M  c #4B473A",
"N  c #564438",
"B  c #52533C",
"V  c #724B2F",
"C  c #754C30",
"Z  c #784E31",
"A  c #75403D",
"S  c #725031",
"D  c #654A37",
"F  c #426A3C",
"G  c #7C3E41",
"H  c #3E7D40",
"J  c gray31",
"K  c #544244",
"L  c #585945",
"P  c #554F50",
"I  c #565454",
"U  c #575959",
"Y  c #5A5B5B",
"T  c #6A4244",
"R  c #764A4C",
"E  c #6D504E",
"W  c #7A4E51",
"Q  c #695859",
"!  c #795355",
"~  c #466D44",
"^  c #407E40",
"/  c #487142",
"(  c #7A6364",
")  c #7C7C7C",
"_  c #843C3E",
"`  c #865631",
"'  c #895632",
"]  c #8D5932",
"[  c #925B33",
"{  c #94623E",
"}  c #A66534",
"|  c #B16C3A",
" . c #853F41",
".. c #893F42",
"X. c #854143",
"o. c #8B4043",
"O. c #8D484A",
"+. c #924245",
"@. c #944A4D",
"#. c #9B4C4E",
"$. c #9B4548",
"%. c #9D4E51",
"&. c #8E5659",
"*. c #8F5A5C",
"=. c #8A5557",
"-. c #925C5C",
";. c #9D575A",
":. c #A34749",
">. c #A6484A",
",. c #AC494C",
"<. c #A64548",
"1. c #B14B4E",
"2. c #A04E50",
"3. c #AE4D50",
"4. c #B14D50",
"5. c #A75659",
"6. c #B55256",
"7. c #B85457",
"8. c #B65559",
"9. c #B95659",
"0. c #BA595C",
"q. c #997159",
"w. c #B97543",
"e. c #BC7846",
"r. c #AC7B55",
"t. c #9B5F60",
"y. c #AA5F62",
"u. c #A65E61",
"i. c #AB6164",
"p. c #AC676A",
"a. c #A56265",
"s. c #B46A6E",
"d. c #B96A6E",
"f. c #B86468",
"g. c #BC6D71",
"h. c #B76E71",
"j. c #B87679",
"k. c #AD7B7D",
"l. c #9A6769",
"z. c #C15E62",
"x. c #C46266",
"c. c #C4676A",
"v. c #CB696C",
"b. c #C6676A",
"n. c #CC6E71",
"m. c #C16F73",
"M. c #D26F72",
"N. c #C37679",
"B. c #CF787C",
"V. c #C87578",
"C. c #D37276",
"Z. c #D57478",
"A. c #DA767A",
"S. c #D3797D",
"D. c #DC797D",
"F. c #428442",
"G. c #468946",
"H. c #469346",
"J. c #489948",
"K. c #489548",
"L. c #B48058",
"P. c #D28E5A",
"I. c #DD9A66",
"U. c #B67F81",
"Y. c #E17E82",
"T. c #B9ADAE",
"R. c #BE8B8D",
"E. c #C68689",
"W. c #DE8B8F",
"Q. c #CB9698",
"!. c #E38185",
"~. c #E78589",
"^. c #E39598",
"/. c #C69FA1",
"(. c #E69DA0",
"). c #EA9EA2",
"_. c #C3AAAA",
"`. c #C1AFB0",
"'. c #D4BABB",
"]. c #DBAAAC",
"[. c #F0B6B8",
"{. c #EDACAF",
"}. c #F0BEC1",
"|. c #C4C4C4",
" X c #C7CACA",
".X c #D1D1D1",
"XX c #DFC7C8",
"oX c #E9C7C8",
"OX c #F3DCDD",
"+X c #EAD3D4",
"@X c #F5DFE0",
"#X c #F8DFE1",
"$X c #ECECEC",
"%X c #F7E4E5",
"&X c #F9E9E9",
"*X c #F6F5F5",
"=X c #F9FAFA",
"-X c #FAF4F4",
/* pixels */
"J.J.J.J.J.J.J.J.J.J.J.J.J.J.J.J.J.J.J.J.J.J.J.J.J.J.J.J.J.J.J.J.J.J.J.J.J.J.J.J.J.J.J.J.J.J.J.J.J.J.J.J.J.J.J.J.J.J.J.H.J.J.J.J.",
"J.J.J.K.K.J.J.H.J.J.J.J.J.J.J.H.J.J.J.J.J.J.J.J.J.J.J.J.F.H F.H H F.H F.J.J.J.J.J.J.J.J.J.J.J.J.J.J.J.J.J.J.J.J.J.J.J.J.J.J.J.J.",
"J.K.K.J.J.J.J.J.J.J.J.H.J.J.J.J.J.J.J.J.J.J.J.J.J.J.J.H.k f d f f d d k G.J.J.J.J.J.J.J.J.J.J.J.J.J.J.J.J.J.J.J.J.J.J.J.J.J.H.J.",
"J.J.J.J.J.J.K.J.J.J.J.H.F.v v ^ H ^ ^ H F.H F.F F.^ F.F , - 3 2 - 3 - , x H H F.^ ^ ^ ^ F.H F.v ^ ^ ^ F.H.J.J.J.J.H.J.J.J.J.J.J.",
"J.J.K.J.J.J.J.J.J.J.J.F.k d d d f d d g g g d g d d g m s .......... .G m f f f g g f & d d d d d d f k F.J.J.J.J.J.J.J.H.J.J.J.",
"K.J.J.J.K.J.J.J.J.J.H./ h 4 4 4 = = % $ % $ O O $ % - t $.6.6.4.6.6.4.@.e $ $ $ O O $ % $ % = = = 4 = m ~ H.J.J.J.J.J.J.J.J.J.J.",
"J.J.K.J.J.J.J.J.J.G.~ J E W ! W W R i t t r $ $ 9 t p R 8.x.x.x.f.z.z.8.G 0 t r $ $ 9 t t i R W W W W E I ~ G.J.J.J.J.J.J.J.J.H.",
"J.J.J.J.J.J.K.J.J.F.l K *.p.p.p.a.u.O._ ..i % % p X.o.%.f.C.n.n.M.M.M.f.@._  .i % % p  . .O.u.p.p.p.p.*.K l F.J.J.H.J.J.J.J.K.K.",
"J.J.J.J.J.J.J.J.J.F.f w a.S.S.B.B.m.3.$.$. .= % G $.:.8.n.Y.A.A.A.A.Y.n.3.$.$.s - %  .$.$.5.b.B.B.S.S.a.w f F.J.J.J.J.J.J.J.J.J.",
"H.J.J.J.J.J.J.H.F.~ M W g.~.!.Y.!.C.8.>.,.o.0 t #.9.0.z.Z.~.^.(.(.^.W.C.f.6.7.%.0 0 +.,.,.7.C.!.Y.!.!.m.W M ~ F.H.J.J.J.J.J.J.J.",
"J.J.J.J.J.J.J.F.j M -.m.Y.Y.!.W.!.C.7.>.,.:...%.c.C.M.Z.A.^.oX#X@XoX^.A.Z.C.M.c.%...:.>.>.7.C.!.!.!.!.S.g.-.M j F.J.J.J.J.J.H.J.",
"J.J.J.J.J.J.J.v & w h.Y.Z.M.M.M.C.v.7.:...+.<.7.Z.Y.W.Y.Y.(.%X=X=X@X(.Y.Y.!.!.Z.9.:.+...$.6.v.Z.C.C.C.A.!.s.w & H J.J.J.J.J.J.J.",
"J.J.H.J.J.J.J.v & w s.D.x.7.7.8.7.7.4.o.0 9 o.7.Z.!.W.D.Y.).#X=X=X#X).Y.Y.Y.Y.Z.9...0 0 ..4.6.7.8.7.8.x.A.s.w f H J.J.J.H.J.J.J.",
"J.J.J.J.J.J.J.F.& w y.b.%. ... . ...o.a 9 0 +.6.b.C.M.n.f.U.`. X X`.U.d.n.Z.Z.v.6.+.0 9 a .... ... . .#.c.y.8 & H J.J.J.J.J.J.J.",
"J.J.J.J.J.J.J.v d 5 @.2.u 2 - 2 4 2 2 9 a +.:.3.6.8.6.#.D K P U Y P K T 2.7.0.7.4.:.+.a 9 2 2 2 2 - - u %.%.3 d H J.J.J.J.J.J.H.",
"J.K.J.J.J.J.J.F.k 6 a a % X X # X @ % 0 +.,.,.$.+. ._ u % X X X X X X % a ......:.>.,.+.0 % @ # o X X - a a m j F.J.J.J.J.J.J.J.",
"J.J.J.J.J.K.J.H.G.F m % @ O X X o % a +.:.,.,.+.0 - - % @ X X X X X X @ % 2 - 0 o.,.,.:.+.i % X X X X @ - , F G.J.J.J.J.J.J.H.J.",
"J.H.J.J.J.J.J.J.J.^ f X O O @ o X 5 o.,.,.>.,...2 . . + X + o X O o o o X X . 2 o.,.,.,.,.o.5 X o @ @ O X d H J.J.J.J.J.J.J.J.J.",
"J.J.J.J.J.J.J.J.J.^ g X X # # o X : ..,.,.,.,.o.4 X . X o X X X X o X O X . X : o.,.,.,.,.o.5 X o + o X O f ^ J.J.J.J.J.J.J.J.J.",
"J.J.J.H.J.J.J.J.J.F.k d @ X o o X 4 ..,.,.:.+.a 9 - 2 : 2 4 - 5 : - 2 4 - 4 2 9 a +.<.,.,...4 X X X o @ & k F.J.J.J.J.J.J.H.J.J.",
"J.J.H.J.J.H.J.J.J.K.F.x & # # + # 2 ..,.,.o.0 9 a o.o.o.X... .o.........o.....a 9 0 o.1.,.o.4 o X X X & z F.H.J.J.J.H.J.J.J.J.H.",
"J.J.J.J.J.J.J.J.J.K.F.F K 7 = @ + 5 o.>.+.G 9 0 #.7.7.7.7.7.7.7.6.6.7.7.7.7.7.#.0 9 a +.<.o.- $ 6 w w B / F.H.J.J.J.J.J.J.J.J.J.",
"J.J.J.J.J.J.J.J.J.F.j B -.l.R 6 $ 4 o.+.t 9 a #.c.C.C.C.M.M.v.n.C.C.M.M.C.M.C.x.$.a 9 t +...: 4 *.s.d.-.B j F.J.J.J.J.J.H.J.J.J.",
"J.H.J.K.J.J.J.J.J.^ & w d.V.=.w $ - ....2 2 O.c.W.).^.(.).^.(.(.^.).).^.(.(.(.W.b.O.4 4 .._ - 8 s.~.~.s.w & v J.J.J.J.J.J.J.J.J.",
"J.J.J.J.J.J.J.J.J.v d w d.B.=.q @ - ....2 8 5.W.oX@XOXOXOXOXOXOXOXOXOXOXOXOXOXoXW.5.7 2 X...- 8 f.~.~.s.w & F.J.J.J.J.J.J.J.J.J.",
"J.J.K.J.J.J.J.J.G.c & q y.m.l.( Q Q #...- w U.[.%X=X=X=X=X=X=X=X=X=X=X=X=X=X=X%X[.U.K - ..@.Q ( s.Z.Z.u.8 & c F.H.J.J.J.J.J.J.J.",
"J.J.J.J.J.J.J.H.j & + 5 @.f.E.T.|._.s._ - P `.&X*X=X=X=X=X=X=X=X=X=X=X=X=X=X=X*X&X`.K - _ s._.`.j.6.6.@.5 o & k F.J.J.J.J.J.J.J.",
"J.H.J.J.J.J.J.F g X X - _ f./.oX&X+Xm._ - Y |.=X=X=X*X=X=X*X*X*X*X*X=X*X*X=X=X=X=X|.U - _ N.+X+Xg.<.<. .: o + h H J.J.J.J.J.J.H.",
"J.J.J.J.J.J.J.F.h $ @ : _ i.Q.XX$XoXN._ - I |.-X=X*X=X*X=X*X*X$X$X$X-X*X=X*X*X=X-X|.U - _ j.+XoXj...<...5 @ @ h F.J.J.J.J.H.J.J.",
"J.J.J.J.J.H.G.F L D n < a @.k._.'.].V.@.- P _.OX*X=X=X=X*X$X|.T.T.|.$X=X=X=X=X-X#X_.P 3 @.V.]._.t.s _ s n n D L / F.H.J.J.J.J.J.",
"J.J.J.J.J.F.j B q.L.{ V < e W ;.s.V.C.a.7 K k.[.%X=X=X=X=X.X) J J K..X=X=X=X=X&X[.k.N 8 i.Z.V.5.e % % 1 Z { L.q.B j F.J.J.J.J.J.",
"H.J.J.J.J.v & m r.P.e.] * @ r p s $.b.i.q 4 &.E.oXOX#X&X=X|.U   . (  X=X&XOXOXoXE.=.4 w i.c.#.i % . . ; [ | P.r.w & H J.J.H.J.J.",
"J.J.J.J.J.H & > [ w.| ' ; X $ $ % t %.%.5 @ 4 ! E.).).[.&X XU     Y  X&X}.).).Y.! 4 @ 5 #.%.u % X X . ; ' | w.[ 5 f H J.J.J.J.J.",
"J.J.J.J.J.H f ; ` } ] Z N w 5 4 2 r s i 2 . . 6 =.s.j.Q.oX'.( w 8 *.}.+XU.d.p.*.4 . X = a a 9 4 8 w w N Z [ } ` * f F.J.J.J.J.J.",
"J.J.J.J.J.F.d ; ` ] < N -.p.5.@.o.a 9 % @ + X @ 6 w K *.E.^.N.s.U.U.Y.U.! 8 8 8 @ X # @ % 9 a @.y.d.s.-.N < ] ' ; d H J.J.J.J.J.",
"J.J.J.K.F.F b < Z C > G m.Y.M.x.z.%.u % @ @ 2 % @ o @ 7 -.s.s.s.p.s.U.@.8 . . O - % $ @ % 0 %.x.D.!.!.m.T < V V < m x F.K.J.J.J.",
"K.J.J.F.j b S Z q 9 a %.V.!.D.A.C.c.#.i % % a a % X X @ 4 w w w w w w 6 O . . = a a % % i #.c.A.Y.!.!.C.%.a q < Z S m j F.J.J.J.",
"J.J.J.v d : ' ' , - o.7.v.C.Z.C.Z.v.7...: - o.+.0 ; 2 4 - % 4 % 2 % % 2 3 4 = 0 +.o.: - o.8.v.Z.C.C.Z.v.7.X.- ; ' ' ; d v J.J.J.",
"J.J.J.H d ; ' ' ; - X.1.8.0.0.0.0.7.4.o.- 4 o.:.o. . .G s  .G s G G .... . . ...:.o.- - o.1.8.0.0.0.0.8.1.o.- ; ' ' ; d F.J.J.J.",
"J.J.J.H f ; ' ' ; - X.,.,.,.,.,.,.,.,.o.2 2 o.,.>.:.:.:.:.:.<.:.:.:...:.:.:.:.>.,.o.4 4 o.,.,.,.,.,.,.,.,.X.2 ; ' ' ; d v J.J.J.",
"J.J.J.H f ; ' ' , 2  .,.,.,.,.,.,.,.,.o.4 4 ..,.,.>.>.>.>.>.:.>.<.<.<.<.>.,.>.,.,.o.- 4 o.,.,.,.,.,.,.>.,...; ; ` ' > f H J.J.J.",
"J.J.J.H d ; ' ' * 2 o.:.+. . . . .o.o.i % % a +.<.,.,.3.6.8.8.6.8.8.8.8.,.,.,.:.+.i % % i o.o. .......+.:...2 ; ` ' ; d H J.J.J.",
"J.J.J.H f ; ' ` ; 2 o.+.0 2 2 4 2 4 - % @ @ % 0 +.,.,.0.v.C.C.C.n.M.C.v.6.,.,.+.t % @ $ % - - - 2 = = 0 +...4 ; ` ' ; d F.J.J.J.",
"J.J.J.F.d , ` ] n q s s 9 4 4 7 7 w w 6 $ X o % a o.O.2.m.A.Y.Y.Y.Y.Y.d.#.X.o.i * X X $ 6 w w w 4 - 2 9 G G q n [ ' : & v J.J.J.",
"J.J.J.v d ; ` } [ C q 9 G ..%.y.p.d.s.-.6 O X @ % 4 5 p %.x.A.!.Y.Y.x.#.u - 4 % @ # X 5 -.s.d.i.@. .o.a 9 9 V [ } ` ; d H J.J.J.",
"J.J.J.F.j m V [ } ` * 4 ..6.z.v.C.D.!.d.K X X $ * ; ; e a @.a.s.s.y.O.a q ; ; * @ X X K d.!.D.v.6.,.1...= ; ' } ] V b k F.J.J.J.",
"J.J.J.J.F.x m < [ ' 4 2 ..4.4.7.7.b.D.d.w . X * V ` ` C 1 2 9 w w 8 4 9 C ' ' V * X . w h.D.b.6.4.,.1...% ; ' [ < m x G.H.J.J.J.",
"J.J.J.J.J.F.k m C C < 9 G ......` $.i.-.6 X X ; C ' ` V > , m > 4 * ; q Z ] ] Z q % @ 6 -.i.@._ ....o.s q n Z S m k F.J.J.J.J.J.",
"J.J.J.J.J.J.F.x b n Z Z e : - : - 5 w 6 $ o X $ ; ; > n Z { r.r.{ ' ' S n ; ; e s a * $ 6 w 5 2 2 2 2 q Z Z < b F F.J.J.J.J.J.J.",
"J.J.J.J.J.J.J.F.d ; ' ' ; X X X # X X X o + o X X X @ > ' e.I.I.w.} } ' , . . 2 o.o.2 X X X X X # X X > ] ' ; d H J.J.J.J.J.J.J.",
"K.J.J.J.J.J.J.v d ; ' ' ; X X X + # # # X X o X # X @ > ] e.I.I.w.} } ] ; . . 2 o.+.4 X X o # + # X X ; ] ] ; d H J.J.J.J.K.J.J.",
"K.J.J.J.J.J.J.^ j m S V * X # # # + # @ - 4 - 5 2 : : < V { r.r.{ ` ' C q % - t +.+.t % @ X + + # # # * V S b k F.J.J.J.J.J.J.J.",
"J.J.J.J.K.J.J.H.F.F b % @ O O X O # X % a o.o.......R a 1 ; M w > ; ; q s ....+.:.:.+.a = X X @ # # # O - b x F.H.J.J.J.J.J.J.J.",
"J.J.J.J.J.J.J.J.J.F.j f g g g & @ O = t +.4.7.9.0.7.8.O.- X X X + X X 5 #.0.9.7.7.8.4.+.t % O @ & f g f d j G.J.J.J.K.J.K.J.J.K.",
"J.J.J.K.J.J.J.J.J.J.F.^ ^ F.^ z & - a $.>.6.v.A.A.C.n.;.7 X X X # X X 7 y.D.A.Z.A.v.8.>.$.a % & z F.^ ^ F G.J.J.J.J.J.J.J.J.J.J.",
"K.J.J.J.J.K.J.J.J.J.J.J.J.J.J.F.j m s ....@.i.s.s.s.p.=.5 o X + + # + 6 -.h.s.s.s.y.@...o.a m k F.J.J.J.J.J.J.J.J.J.K.J.J.K.J.J.",
"J.J.J.J.H.J.J.J.J.J.J.J.J.J.J.H.F.F m 3 3 5 w w N w w 4 $ @ # # + # # $ 6 w K w w w 5 - 3 , F F.H.J.J.J.J.J.J.J.J.J.J.J.J.J.J.J.",
"J.H.J.J.K.J.J.J.J.J.J.J.J.J.J.J.J.F.k & + X X X X o o o + # @ # # @ # # # X X X X X X o & k G.J.J.J.J.J.J.J.J.J.J.J.J.J.J.K.H.J.",
"J.J.J.J.J.J.H.J.J.J.J.J.J.J.J.J.J.J.F.z & O X O X X o o + # # # + # @ # o o # X X X X d z F.J.J.J.J.J.J.H.J.J.K.K.J.J.J.J.J.J.J.",
"J.J.J.J.J.J.J.J.J.J.J.J.J.J.J.J.J.J.J.F.j & & & @ # # # # # O O O O # # O # # @ & g d k F.J.J.J.J.J.J.J.J.J.J.J.J.J.H.J.J.J.J.J.",
"J.J.J.J.J.J.J.J.J.J.J.H.J.J.H.J.J.J.J.H.F.F.F.x & O O O o o o X X O # o O X O & x ^ ^ F.H.J.J.J.J.J.J.J.J.H.J.J.J.J.J.J.K.J.J.J.",
"H.K.J.J.J.J.J.J.J.J.J.J.J.J.J.J.J.J.J.J.J.J.J.F.k f f f g g g g g g g d g g g j F.J.J.J.J.J.J.J.J.J.J.H.J.J.J.J.J.J.K.J.J.J.J.H.",
"J.J.J.J.J.J.J.J.J.J.J.J.J.J.J.J.J.J.J.J.J.J.J.J.F.^ H H F.^ F.F.F F.F.^ F.F.F G.H.J.J.J.J.J.J.J.J.J.J.J.J.J.J.J.J.H.J.J.H.J.J.J.",
"H.J.J.J.J.J.J.K.K.H.J.J.J.H.J.J.J.J.J.J.J.J.J.J.J.J.J.J.J.J.J.J.J.J.J.J.J.J.J.J.J.J.J.J.K.J.J.J.H.J.J.J.K.J.J.J.J.J.J.J.J.J.J.J."
};
