/* XPM */
static char *xpm_[] = {
/* columns rows colors chars-per-pixel */
"64 64 205 2 ",
"   c #1F1E1F",
".  c #201E20",
"X  c #1E2122",
"o  c #252525",
"O  c #2A2626",
"+  c #282827",
"@  c #252728",
"#  c #282728",
"$  c #262829",
"%  c #292929",
"&  c #322926",
"*  c #2F3D2F",
"=  c #343335",
"-  c #313D31",
";  c #373639",
":  c #38373A",
">  c #36393C",
",  c #39393B",
"<  c #2F3031",
"1  c #42271F",
"2  c #4C271C",
"3  c #4D281E",
"4  c #47281F",
"5  c #50271B",
"6  c #7C2A12",
"7  c #7A2710",
"8  c #7B270F",
"9  c #432821",
"0  c #4E2E22",
"q  c #4D362E",
"w  c #563A2D",
"e  c #503E31",
"r  c #502F23",
"t  c #673925",
"y  c #713B25",
"u  c #344234",
"i  c #3E483F",
"p  c #3F593F",
"a  c #3B553B",
"s  c #5A402F",
"d  c #5B4131",
"f  c #554337",
"g  c #75472F",
"h  c #3E3E41",
"j  c #3E4940",
"k  c #3F4245",
"l  c #424245",
"z  c #464649",
"x  c #4A4A4D",
"c  c #494446",
"v  c #49544A",
"b  c #465148",
"n  c #4D4D52",
"m  c #544F51",
"M  c #4D5055",
"N  c #525356",
"B  c #55565B",
"V  c #5A5A5D",
"C  c #595559",
"Z  c #594E4B",
"A  c #6C5452",
"S  c #7D5B57",
"D  c #7E5D59",
"F  c #6B564A",
"G  c #4A6D4B",
"H  c #456745",
"J  c #4F7D4F",
"K  c #4E704E",
"L  c #596459",
"P  c #576357",
"I  c #507E50",
"U  c #537553",
"Y  c #507E4F",
"T  c #7C615F",
"R  c #5B5C62",
"E  c #5F6067",
"W  c #616066",
"Q  c #65656C",
"!  c #69696E",
"~  c #67686E",
"^  c #6C6C74",
"/  c #6D6F78",
"(  c #676770",
")  c #776E71",
"_  c #717276",
"`  c #74747C",
"'  c #7A7A7B",
"]  c #B11F00",
"[  c #992806",
"{  c #972807",
"}  c #8D3213",
"|  c #B52500",
" . c #B92600",
".. c #B82B04",
"X. c #BC360D",
"o. c #A4391C",
"O. c #A53616",
"+. c #B23B1A",
"@. c #B93813",
"#. c #A32F0B",
"$. c #92422E",
"%. c #995C39",
"&. c #81573F",
"*. c #B34222",
"=. c #B85439",
"-. c #A04A34",
";. c #9F623C",
":. c #BD6939",
">. c #AB683E",
",. c #B04219",
"<. c #D14310",
"1. c #C44F2D",
"2. c #C35231",
"3. c #C65B3C",
"4. c #C95D3D",
"5. c #EE7739",
"6. c #C46332",
"7. c #86574F",
"8. c #A96448",
"9. c #BC7141",
"0. c #AC6859",
"q. c #927168",
"w. c #AE6F61",
"e. c #AB766A",
"r. c #C85F40",
"t. c #C57442",
"y. c #CA7643",
"u. c #CE7A47",
"i. c #CF6F45",
"p. c #D37D64",
"a. c #538453",
"s. c #599259",
"d. c #5D9A5D",
"f. c #B68176",
"g. c #DF8046",
"h. c #ED8748",
"j. c #FA8B46",
"k. c #FB8E4A",
"l. c #F68946",
"z. c #FF904B",
"x. c #F89558",
"c. c #E08F5D",
"v. c #D5866F",
"b. c #CC926E",
"n. c #F39C66",
"m. c #F8A674",
"M. c #7B7B83",
"N. c #7F7F88",
"B. c #818185",
"V. c #84848B",
"C. c #89888F",
"Z. c #88878E",
"A. c #8C8C93",
"S. c #909096",
"D. c #94949C",
"F. c #99999E",
"G. c #96999A",
"H. c #B59591",
"J. c #AE928C",
"K. c #9A9AA2",
"L. c #A3A3A5",
"P. c #A6A6AD",
"I. c #A8AAA8",
"U. c #BAA8A8",
"Y. c #AAAAB1",
"T. c #ACACB3",
"R. c #A7A7B0",
"E. c #AFB0B4",
"W. c #BAB9BE",
"Q. c #B4B4B7",
"!. c #E1A896",
"~. c #FAB488",
"^. c #D0BAB3",
"/. c #FBCCAE",
"(. c #BEBEC3",
"). c #C0BFC1",
"_. c #C2C2C3",
"`. c #CDC4C5",
"'. c #C7C8CC",
"]. c #CBCBCD",
"[. c #C6C7CA",
"{. c #CECED1",
"}. c #D2D3D3",
"|. c #D5D6D9",
" X c #DBDCDF",
".X c #D9D5D7",
"XX c #D2CCCB",
"oX c #EECDC3",
"OX c #EFD2C9",
"+X c #F3D5C8",
"@X c #F3DBD3",
"#X c #EFDCD1",
"$X c #FDE4D5",
"%X c #DCDCE0",
"&X c #E3E3E5",
"*X c #E7E7E8",
"=X c #EBEBED",
"-X c #FEF3EC",
";X c #EFEFF1",
":X c #F0F0F1",
">X c white",
",X c #FFFFFF",
"<X c #F9F5F4",
"1X c #FEEDE2",
"2X c None",
/* pixels */
"d.d.d.d.d.d.d.a.u o o u J d.d.d.d.d.d.d.d.d.d.d.d.d.d.d.d.d.d.d.d.d.d.d.d.d.d.s.s.d.d.d.s.d.d.d.d.d.d.a.u     u J d.d.d.d.d.d.d.",
"d.d.d.s.a.J a.K v l c v K J a.a.d.d.d.s.s.d.s.d.d.s.s.d.s.d.s.d.d.s.d.s.s.d.d.d.d.d.d.d.d.d.d.s.a.I a.U L V V L U a.a.a.d.d.d.d.",
"d.d.d.a.p u u v _ A.Z._ v u u j a.d.d.d.d.d.s.d.d.d.d.d.d.d.d.d.d.d.d.d.d.s.d.d.d.d.d.d.d.d.d.a.f - u L I.].].I.P u u f a.d.d.s.",
"d.d.d.J u . o c C.T.T.A.b o $ u J d.d.d.d.d.d.d.d.d.d.d.d.d.d.d.d.d.d.d.d.d.d.d.s.d.d.s.s.d.d.I u . o V {.,X,X{.C .   u a.d.d.d.",
"d.d.d.a.u . . l C.T.T.C.c o o u J d.d.d.d.d.d.d.d.d.d.d.d.d.d.d.d.d.d.d.d.d.d.d.d.d.d.d.d.d.d.I u X o V XX,X,X].V     u a.d.d.d.",
"I I I G v z z W A.Y.Y.V.z o o u a.d.d.d.d.d.d.s.J J J J J I J I J J J J I I I a.s.d.d.d.d.d.d.I a X . V ].,X,X}._ l z v G a.a.a.",
"u u u v ' A.Z.A.K.R.R.V.l o   u J d.d.d.d.d.d.a.p - u u u u u u u u u u u u - b a.d.d.d.d.d.d.I u X X V ].,X,X*XI.Z.C.` v u u u ",
"# o o l N.K.K.L.Q.)._.K.W l l b G J a.J J J a.G i = : : : : : : : : : : ; > = i G a.I I I a.I G v k z ! _.;X=X.XT.F.K.B.k @ X X ",
"# + + , ~ M.M.D.}.:X;X|.K.Z.V._ b - u u u u > j M R R R R R R R V R R B R R R m l u u u - u u v ` C.V.D.T.(.(.T.A.M.M.~ h o # # ",
"# o + > R ^ ( A.{.:X;X&X].(.(.L.W z l h < + @ : R ^ ^ ^ ( ^ ( ^ ^ ^ ^ ^ ^ / ^ R : @ # % = : = N A.T.T.R.P.P.P.D.' ^ ( R > o o # ",
"# o o > R ^ ^ B.Y.(.(.'.&X:X:X|.K.V.V.) e @ @ : R / / ^ ^ ( ( ^ ^ ( ^ ^ ^ ^ ^ R : # # = n R B ^ D.T.R.R.R.P.P.D.M.^ ^ R : # # # ",
"u u u i N R V ! Z.D.D.Y.|.:X:X%X(.Y.T.A.k @ @ = R ^ ( ^ M.M.M.M.M.M.M.` ^ ^ ^ R : o o : R / / M.S.D.K.D.K.K.K.A.( R R N j u u u ",
"I I a.G i ; ; z ( M.M.V.T.(.(.(.E.T.T.A.z o o : R ( ^ ` A.K.D.D.D.K.K.A.M.( ^ R : o o : R / / _ ' M.M.M.M.M.N.( x : : j G a.I I ",
"d.d.d.I u o o ; R ( ( M.A.K.K.S.A.Z.A.^ x ; = z ( M.M.V.K.P.R.R.P.P.R.K.N.M.M.( x : ; l B R R R ( ^ ^ E V B B n = o o u I d.d.d.",
"d.d.d.a.u $ . ; R ^ ( / M.M.M.^ N l l x B R R ! A.K.K.K.P.P.P.P.P.P.R.L.K.K.K.A.! V R N h = = c E / ^ R z = = < % o o u a.d.d.d.",
"d.d.d.a.j > u j N R R R B R R M h = : l W / / M.A.K.K.K.P.P.P.P.P.R.P.P.K.K.K.A.M.^ ^ E z : : l N R R R V V C m = + % u I d.d.d.",
"d.d.d.s.a.I I G j : : : : > = l N R R W ( / / / M.M.M.V.K.R.P.P.R.R.R.K.V.M.M.M._ / _ ^ W R R N l ; = V I.{.{.L.m . o u a.d.d.d.",
"d.d.d.d.d.d.d.a.u o + % = : : h B R R V V V B R ( ( ( ` A.K.K.K.D.D.K.Z.M.( ( ( R B B C R R R M = o o V XX,X,X{.L . @ u J d.d.d.",
"d.d.s.d.d.d.d.a.u + + = n R R N h : : > = = = l E ^ ^ / ` M.M.M.M.M.M.M.^ ^ / R l = = ; : , > = % o o V ].,X,X].W @ @ u a.d.d.d.",
"d.d.d.s.a.J J H - o + , R _ _ W z = = l N E A V B R B R Q ^ ( ( ^ ( ( ( R C R R V V V N l > ; = < o o V ].,X,X].A X o u J d.d.d.",
"d.d.d.a.p - - * % + + , R / ^ Q R B B _ E.}.}.I.V < = f R ^ ^ ^ ( ( ^ R f < < R I.}.}.E._ R B n = o o V ].,X,X].V o + u J d.d.d.",
"a.J a.U P V V m = o o : R ^ ^ ^ M.M.M.D.'.*X&X_.' C C W ( ^ ( ( ^ ^ ^ ( W V B d._.*X*X[.D.M.N.~ i . o V ].,X,X].C   o - H a.J a.",
"u u u L I.}.}.L.m   . ; R / ^ M.S.K.K.K.G.S.S.K.).}.{.Q.N.( Q ( ( Q ( N.Q.}.{.).K.S.S.D.K.K.K.N.l     P [.,X,X].C     + - u u u ",
"o o o C W.,X<X[.^ l l n B R R ^ A.K.K.S.N.` ` S.'.*X*X'.S.M.M.M.M.M.M.D.[.*X*X'.D._ ` ' C.A.A.' F q w T XX,X,X.Xf.C V x = + o % ",
"+ o o x K.].].Q.D.N.V.^ n h > n / N.N.V.S.D.D.D.D.F.F.D.D.D.D.S.S.D.D.D.K.K.K.D.D.D.D.V.R x n F 8.:.:.b.#X,X,X:X'.(._.G.v o o @ ",
"+ o + z V.K.K.K.K.K.K.M.z $ @ = M E W ( B.A.A.V.M./ / N.K.P.P.P.P.P.P.D.M.^ ^ M.A.K.K.N.z % % d 9.l.l.m.$X,X,X,X,X:X,X[.V o o % ",
"% + + h ^ V.V.V.N.V.V.( h X o < h l l z N B C R ! ^ ( M.K.R.P.P.P.R.R.K.M.^ ^ M.M.V.V.^ i o o d t.z.j.m.$X,X,X,X,X,X,X'.V o o % ",
"% + + : B ~ ~ ! ~ ~ ! V e = < = > , , h k l c x B W W ^ A.L.K.K.K.K.K.S.) R R R Q ~ ~ C : o @ w t.z.j.m.$X,X,X,X,X,X,X'.V o o % ",
"% + % = l x x x x x x x x x x x n n x x n n n x x z x C M.A.A.A.V.A.A.M.B c z z x x x l < + + d t.k.k.m.$X,X,X,X,X,X,X].L $ $ % ",
"% % % % = : : , , h h x Q _ _ _ / ^ / / ^ _ ^ Q x h h x W / ^ / / ( M.E c h h h k l k : < @ @ s t.k.l.m./.-X-X-X,X,X,X].A X $ % ",
"2X2X2X2X% % = ; l z z R A.P.P.P.L.L.L.P.L.P.P.S.W z z x N N N N C N n z h # o < z z x k < $ o s t.k.j.n./././.+X-X,X,X].V o $ $ ",
"2X2X2X2X= % % , B Q Q M.E.].[.[.'.'.].'.].].].T.' Q W R x c z l h h h h = = = h M B B x = + o s t.z.k.x.m.~.m./.$X,X,X].V o o % ",
"2X2X2X2Xh h h N M.D.D.P.[. X|.|..X%X|.@X.X%X|.).L.S.D.B.V l l l = < < : z m m B W Q Q B : @ @ d t.k.k.x.x.x.x.~.$X,X,X{.R o o # ",
"2X2X2X2Xn n n ! L.).(.).).`.`.`.).).).).).).).)._.(._.L.! n n z = . . h R / ^ / / / / E h % < d 9.h.h.h.l.l.l.m.+X<X<X).C o + # ",
"% % # , C W E N.(.%X%XXX^.J.H.H.H.H.H.H.H.H.H.^.XX X XW.B.E W N h . . l / Z.A.V.M.M.M.! z ; ; f 8.y.y.u.h.l.l.n.^.}.|.U.N o + # ",
"% # # : R ^ ( V.W..X.X^.e.8.0.0.w.p.w.w.w.0.w.e.^..X.XW.V.^ ^ R : . % c ) A.A.A.Z.Z.V.` V z z Z &.%.%.>.g.k.k.c.J.G.G.d.l + # # ",
"% % # , R ^ ^ M.J.U.U.H.=.o.+.*.=.=.=.=.*.+.+.=.J.U.U.J.' ^ ^ R , o + : R / ^ M.A.D.D.A.^ W R C f q q g y.z.k.u.F c x l < + % % ",
"% # # , R ^ ^ ) q.e.e.8.+.| | @.r.p.p.r.@.| | +.8.e.e.q._ / ^ R , o + = z N m W N.D.D.V.` / / R > X o s 9.z.k.t.s o o + + + % % ",
"% $ # : R ^ ^ T -.*.*.+...| | 2.!.@X@X!.2.] | ..+.*.*.-.T / ^ R , % % % = = = z Q ` ` ' / ^ ^ R > o o w t.k.l.t.s o + O + % % + ",
"% + % , R ^ ^ S o. . .] | | ] r.oX,X,XOXr.| ] | | |  .o.A / ^ R : + # $ @ @ o = n R B B B C V Z q 5 5 y ;.9.9.;.y 5 5 4 & % % % ",
"% + o : R ^ ^ S O.| | | | ] ] =.oX,X,XoX3.] ] | | ..| o.S ^ ^ R : + % $ $ $ $ % ; : : ; : > > q } [ { } w f q t } { [ 8 1 $ $ + ",
"% + % , R _ / S o.| ..@.2.r.r.v.@X,X,X@Xp.r.r.2.X.| | o.S / ^ R , % + & 9 3 3 9 O + + + + $ + 4 {  . .#.y s s g O.<.<.O.r + $ % ",
"% # o , B / / S o.| | 2.!.OXOX$X<X,X,X-X@XOXOX!.2.| | o.S ^ / R : $ $ 9 8 [ { 7 1 + o + % $ $ 4 { .. .X.6.t.y.y.5.5.5.:.w $ $ % ",
"% + + : R ^ / S o.| | 2.!.OXOX@X-X,X,X<X@XOX@X!.2.| | o.S / ^ R : $ $ 9 8 { { } q > > = % % $ 9 7 { { O.:.y.y.t.t.t.y.;.e + % % ",
"% % + : R / / A o...| X.2.r.4.v.@X,X,X+Xv.r.r.2.X.| | o.S ^ _ R : % $ & 9 3 4 q N R R n : % % & & 4 4 r q d d d d s s e & % % % ",
"% $ + : R / / T o. . ...| ] ] 3.oX,X,XoX3.] ] | ..| | o.S / / R : + % % = > > k W ^ ^ R : + + % = : , : > > > > k z z , < $ % % ",
"% + $ > R / / T o. . .| | | ] 3.oX,X,XoX3.] | | ..| | o.S / / R , + + = n R R E ( ^ ^ R : o o = M R R R R R R ~ M.A.A._ k + + % ",
"% + $ = n R R F $.o.o.O...| ] 1.!.OXoX!.=.| | ..O.o.o.$.A E R N ; + + > E _ / ^ / ^ ^ W c > ; l N E R E R R R ~ B.A.A._ k + + % ",
"% % % % = : : c A 7.T 7.#. .| X.*.r.r.2.X.| ..O.7.D 7.A c : : = % o % , R _ / ^ ^ ( ( Q R R R C z > : , : > > h l x x l = + % % ",
"% % % % : , : h B R R A $.+.o.o.o.O.O.O.O.o.o.$.A R R M = o + + % % # ; n R V Q ` N.M.M._ / _ R > o + & 1 2 3 9 O o o @ o + % % ",
"% % % = n R R N k > > l A T 7.T S S S S D D D A h h h h % + $ + % % % % ; : : N V.K.K.S.M./ / R > @ @ 1 8 { { 7 1 o o o % % % % ",
"# o % , R / ` R > o X = M R R R R R R R R R R M = @ $ X % % % % % % % % % + o , _ A.A.M.Q V R n = @ @ 1 8 { { } q , , ; % o % o ",
"# + o , R _ / R : o o % = : > > : : > > > : h = % $ + + % % % % % % % + + + o = h x z c , ; : = % + + O 4 2 4 q m W R n = o o + ",
"u u u j B R R N l : : : > ; = > ; = ; = % o o @ @ $ % % % o + + % % % + % # % o o o o % = : : > , , : > > > > k B R W N b u u u ",
"I I a.G j ; : k N R R R R R R R B R R n = @ @ o # @ # $ o % + + + + o + o + + o o o o < n B R B V R R V R V R N l : : b G a.I I ",
"d.d.d.I u o o : R / / ^ ^ ^ ^ / M.N.M.^ z ; ; ; : , : : : : > : > : : : ; ; ; : i z c N / M.M.M._ / ^ / / / / R : o o u I d.d.d.",
"d.d.d.J u o o : R / ^ / ^ ^ ^ ` S.K.K.C.( R R R R R R R B R R R V R R V B B B Q M.V.V.A.D.K.K.A.' ( ^ ^ / / / E : o o u a.d.d.d.",
"d.d.d.a.p u u i B R R W ! ^ ^ ` A.K.K.D.V.M.M.M.M.M.M.M.M.M.M.M.M.M.M.N.A.D.D.K.Q.(._.W.T.P.Y.K.M.^ ^ ~ E R R M j u u b a.d.d.d.",
"d.d.d.s.a.J J G i : : l W ^ ^ _ M.M.M.V.S.K.K.K.K.K.K.D.K.K.K.K.K.K.D.Y.{.&X&X&X*X=X=X X(.R.R.K.M.^ ^ E k > = f G I I a.s.d.d.d.",
"d.d.d.d.d.d.d.J u o o = n R R R R V B ( C.K.K.K.K.D.K.K.K.K.K.K.K.K.K.R.{.&X%X*X,X,X,X&XL.V.V.M.Q R R M < o o u I d.d.d.d.d.s.d.",
"d.d.d.d.d.d.d.a.u o @ & = : : : : ; = z ^ M.N.M.M.M.M.M.M.M.M.M.M.M.M.V.A.S.S.T.=X,X,X.X_ l l l , : : = % + o u J d.d.d.d.d.d.d.",
"s.d.d.s.d.d.d.a.b u u u , u u u u u u i N R R B R B R R R V R B R V B V V B B _ T.XX].I.P - - u u u u u u u u b a.d.d.d.d.s.s.d.",
"d.d.d.d.s.d.d.s.a.a.a.I J a.J J a.I J G i = : : : ; = ; : : : : ; ; : > : > ; h N C V P U J a.J J a.J J a.J J a.s.d.d.d.d.d.d.d.",
"d.s.d.d.d.d.d.d.d.d.d.d.d.d.d.d.d.d.d.I u o @ # @ @ @ @ o + $ + # @ + o + o + o o   o * a.d.d.d.d.d.d.d.d.d.d.d.d.d.s.d.d.s.d.d."
};
