/* XPM */
static char *xpm_[] = {
/* columns rows colors chars-per-pixel */
"64 64 190 2 ",
"   c #6F5F3F",
".  c #76553D",
"X  c #7A513F",
"o  c #70623F",
"O  c #7A5441",
"+  c #715F42",
"@  c #7D5E4E",
"#  c #7E5F51",
"$  c #5D7C44",
"%  c #5C7F48",
"&  c #6D6242",
"*  c #646F43",
"=  c #6F6E4D",
"-  c #726344",
";  c #7E6243",
":  c #756D42",
">  c #786F42",
",  c #7D614C",
"<  c #726B4F",
"1  c #7E6D4D",
"2  c #637143",
"3  c #687143",
"4  c #727142",
"5  c #6F6E50",
"6  c #7D6052",
"7  c #746D53",
"8  c #7E665A",
"9  c #7F6A5D",
"0  c #7F6A60",
"q  c #7E766A",
"w  c #797F6A",
"e  c #805F4E",
"r  c #805F53",
"t  c #816145",
"y  c #846E43",
"u  c #836D4E",
"i  c #867042",
"p  c #877D42",
"a  c #897D43",
"s  c #826D52",
"d  c #80665C",
"f  c #806B5E",
"g  c #816B60",
"h  c #82756D",
"j  c #877F6A",
"k  c #887F6B",
"l  c #857D77",
"z  c #857D79",
"x  c #4E8B46",
"c  c #538746",
"v  c #5F8741",
"b  c #518B46",
"n  c #5E8C45",
"m  c #548A4B",
"M  c #479447",
"N  c #4A9446",
"B  c #469847",
"V  c #4A9847",
"C  c #479548",
"Z  c #4B974B",
"A  c #469848",
"S  c #489848",
"D  c #579446",
"F  c #599446",
"G  c #559847",
"H  c #5A9847",
"J  c #59974A",
"K  c #569848",
"L  c #58994B",
"P  c #5F8451",
"I  c #5E8955",
"U  c #559554",
"Y  c #589654",
"T  c #579854",
"R  c #569558",
"E  c #5C945D",
"W  c #559858",
"Q  c #618746",
"!  c #638A4A",
"~  c #638B45",
"^  c #7F8742",
"/  c #7C8B43",
"(  c #659846",
")  c #699846",
"_  c #65974B",
"`  c #689749",
"'  c #69984A",
"]  c #749746",
"[  c #7D9745",
"{  c #749845",
"}  c #7E964F",
"|  c #618857",
" . c #649553",
".. c #649856",
"X. c #62935C",
"o. c #7F9651",
"O. c #5F9361",
"+. c #76846C",
"@. c #79836E",
"#. c #629363",
"$. c #6D906D",
"%. c #7C906C",
"&. c #798470",
"*. c #778E77",
"=. c #7C8E75",
"-. c #778E7A",
";. c #7B8D7C",
":. c #6F9071",
">. c #719071",
",. c #7E9070",
"<. c #779079",
"1. c #7B917C",
"2. c #808947",
"3. c #8E8A43",
"4. c #8C844D",
"5. c #8D894A",
"6. c #918A44",
"7. c #849745",
"8. c #8E9744",
"9. c #839844",
"0. c #8C9845",
"q. c #85964A",
"w. c #8D954F",
"e. c #949744",
"r. c #949843",
"t. c #92954C",
"y. c #939849",
"u. c #8C8652",
"i. c #8C8851",
"p. c #8E8F5C",
"a. c #839553",
"s. c #8E9450",
"d. c #8E925E",
"f. c #919552",
"g. c #929850",
"h. c #91935D",
"j. c #87826C",
"k. c #88846D",
"l. c #8B8C6D",
"z. c #8F9361",
"x. c #80906D",
"c. c #8D906C",
"v. c #909261",
"b. c #90906D",
"n. c #848275",
"m. c #898370",
"M. c #868E76",
"N. c #898A77",
"B. c #8B8E74",
"V. c #85807B",
"C. c #868279",
"Z. c #85807D",
"A. c #86827C",
"S. c #85807E",
"D. c #85817B",
"F. c #888079",
"G. c #878E7A",
"H. c #898B7A",
"J. c #8B8F79",
"K. c #8A8E7B",
"L. c #8A8D7D",
"P. c #8A8E7C",
"I. c #8A8F7E",
"U. c #8D8E7D",
"Y. c #8B8D7B",
"T. c #8C9072",
"R. c #879079",
"E. c #8B907A",
"W. c #8B907E",
"Q. c #8B907E",
"!. c #7D8F80",
"~. c #878783",
"^. c #878785",
"/. c #878784",
"(. c #888785",
"). c #878885",
"_. c #878886",
"`. c #858B86",
"'. c #898C84",
"]. c #898D86",
"[. c #8C8C87",
"{. c #898B85",
"}. c #878A8C",
"|. c #888B89",
" X c #888B8A",
".X c #888C8A",
"XX c #888D8A",
"oX c #888B8C",
"OX c #888D8C",
"+X c #898B8A",
/* pixels */
"B H [ e.e.e.e.e.e.e.8.e.e.e.e.e.e.e.8.e.e.e.e.e.e.e.e.7.H B S S S S S S S S S S S S S S B Z S S S S S S S S S S S S B Z B S S S ",
"K ( 7.e.e.e.y.e.8.e.e.e.e.e.e.e.e.e.e.e.e.e.e.e.e.8.7.] G S S S S S S S S S S S S S S S S B S S S S S S S S S S S S Z A B S S S ",
"[ 7.e.e.e.e.e.e.e.e.e.e.e.e.e.e.e.e.e.8.e.8.e.e.e.7.) J Z S Z B S S S S S S S S S S S B S S S S S S S S S S S S S S B A S S S S ",
"e.e.e.e.e.e.8.e.e.e.e.e.e.e.e.8.e.e.e.e.e.e.e.e.e.9.D B B B B B S B S S S S S S S S S S B S S S S B S S S S S S S S A A S S S S ",
"e.e.e.e.e.e.e.e.e.e.e.e.e.e.e.8.e.e.e.r.e.e.r.r.e.9.H A A B N Z S S S S S S S S A Z B S S S S S B A S S S S S S S S S S S S S S ",
"e.e.e.e.e.e.e.e.e.y.e.e.e.e.y.e.e.e.e.e.r.y.f.t.5.2. .R R U Z B B S S S S S S S A A B Z G H H H G J H G S S S S S S S S S S S S ",
"e.e.e.e.e.8.e.e.e.e.8.e.e.e.e.e.e.e.e.r.r.f.c.k.u 1 @.*.*.$.U B B S S S S S S S A A S G ] 7.7.9.7.7.7.] G S S S S S S S S S S S ",
"e.e.e.e.e.e.e.e.e.8.e.e.e.e.e.e.8.e.e.e.3.u.H.V.9 f k.U.[.!.#.U m b F G S S S S G H H ' 7.8.7.7.8.e.e.7.) G S S S S S S S S S S ",
"e.e.e.e.e.e.e.e.e.e.e.e.e.e.8.e.e.e.e.3.y s V.|.~.k.p.d.L.|.!.@.= : / { K S B G { 7.9.7.e.7.) ( 7.e.e.e.7.] G S B S B B S S S S ",
"e.e.e.e.e.e.e.e.y.e.e.e.e.e.e.e.r.r.r.3.u 9 Z.`.L.c.h.z.K._.Z.h 8 u 6.7.) D K ( 7.e.e.e.7.] ( ( 7.e.7.7.e.7.( G S S Z B S S S S ",
"e.8.e.e.e.e.e.e.r.r.e.e.e.e.e.e.r.r.r.w.j.z |.L.z.d.c.L.].V.f 8 h k.f.e.7.7.7.7.8.e.e.0.' ( ] 7.e.7.( ( 7.e.7.] G A A Z S S S S ",
"e.e.8.e.e.e.e.e.r.r.8.e.e.e.e.8.3.5.t.z.L.OX|.L.d.d.L.OX|.V.9 9 Z.Q.f.e.e.e.e.e.e.e.7.] H ( 0.e.e.7.( ( ] 0.e.7.H A A A S S S S ",
"e.e.e.e.e.e.e.e.e.8.e.e.e.e.e.3.i 1 j.Q.].|.|.].J.L.].+X|.~.V.V.|.K.f.r.r.r.e.e.e.q.( ( ] 7.e.e.e.e.7.] ( ( 7.7.F A B S S S S S ",
"e.e.e.e.e.8.7.7.8.e.e.e.e.e.r.5.u 0 V.+X|.~.V.l l V.N.L.'.|.+X|. XK.z.f.e.r.e.e.e.7.( ( 0.e.e.e.q.9.7.] ( ' 7.7.H A A S S S S S ",
"e.e.8.e.e.7.( ( 7.e.e.e.e.r.r.w.j.D._.XX|.A.f 6 6 s i.z.K. X X X X|.K.c.f.r.r.e.e.8.7.7.8.e.e.7.( G H ( ] 7.e.7.H S S S S S S S ",
"e.e.e.y.e.7.( ( 7.e.e.e.r.r.r.s.E._.D.D._.A.f @ O ; 4.z.K. X|.].K.N.V.k.p.f.e.e.e.e.e.e.7.7.e.7.) K K ( 7.e.0.) G S S S S S S S ",
"e.e.e.e.e.8.7.7.8.e.e.e.e.e.r.f.K.Z.9 9 V.|.V.h , , j.Q.].+X+XK.z.5.s 9 m.c.t.r.e.e.e.7.( ( 7.8.0.7.[ 7.e.7.) K S S S S S S S S ",
"e.8.7.7.8.e.e.e.e.e.e.8.f.s.f.z.L.z 9 9 V.+X+XC.0 8 h C.N.K.].E.z.4.; 6 z G.i.3.e.e.e.7.( ( 7.e.7.7.e.e.e.7.K S G G S S S S S S ",
"r.0.( ( 7.r.e.e.e.r.e.f.l.K.B.L.]._.V.V.~.|.]._.A.h 8 s i.z.L.`.Q.j., 6 z V.8 i 6.e.e.8.7.7.e.7.) ( 7.e.r.7.G K ] ] G S S S S S ",
"7.] ( _ a.f.y.e.e.r.r.s.K.oX|. X+X+X|.+X+X].+X+X|.Z.9 u 5.z.Q._.Z.h 8 9 A.A.s i 3.e.e.e.e.e.7.] ( ) 7.e.e.7.( ( ] [ ) G S S S S ",
"D ( { a.c.c.f.r.e.r.r.f.K. X|. X X XOXoX+X|.}. X|.~.V.C.N.L.].V.9 8 h A.^.H.u.3.r.e.e.e.e.q.) ( ] 0.8.e.e.e.q.] ( ( ] ] G S S S ",
"B J q.h.B.c.f.r.e.e.w.z.L._.L.K.'.|.z &.=.=.M.L.'.+X|.|.+X+X+XV.9 g A.OXoXB.f.e.r.e.e.e.e.[ H K ] 7.e.e.e.e.e.9.H G ] ] H S S S ",
"B U %.B.h.f.e.r.r.t.c.L.].K.z.z.U.A.0 7 I  .a.z.K.+X|.+X|.|.].~.Z.Z.|.+XoXK.f.r.e.e.e.e.e.9.H Z G ` 7.e.e.r.r.9.H Z K G S S S S ",
"U O.!.G.a.7.s.f.f.z.L.|.L.c.t.w.k.h 8 7 I  .a.h.E.|.|._.Z.V.|.`.;.*.n.Z.(.K.f.r.r.8.7.7.8.9.H C x n ^ 5.f.f.6./ D B B B S S S S ",
"-.;._.;. . .%.U.J.L._.L.z.t.e.5.u d h n.;.=.M.K.{.]. XV.f f Z.;.#.I 7 g Z.E.f.e.e.7.( ( 0.7.H x 2 - ; s k.k.s 4 b B S B S S S S ",
" X X[.;.#.E $.;._.].L.c.f.e.f.5.y s V.+X[. X X X|.|.+Xl @ # l 1...Q o 6 j c.f.e.e.7.( ( ] ] n $ - O . 6 l l d & P Y R U Z S S S ",
" X+X X|.;.:.O.O.;.U.z.t.e.t.c.l.5.i.B.OX X X|. X`.+X+Xl # # l R.a.^ ; ; u.g.y.e.e.e.7.] ( n 2 + O X X 6 l z 6 , @.;.*.$.T S B S ",
"|.`.;.;.|.;.#.O.;.K.z.f.f.z.L.K.z.z.K.|.[.|.|. X+X+X`.V.f f A.U.z.i.i i 6.e.7.7.e.y.g.a. .I 7 6 6 6 6 f m.k., 6 l +XOX;.U B B S ",
"[.;.#.#.;.|.G.!.`.].K.B.B.L.`.].L.U.'.`.|.+X+X X].+X|.~.F.A.(.|.Q.l.i.6.e.7.( ( 7.g.b.G.;.*.n.V.l D.l k.d.4.; 6 z OX X1.U B B S ",
"[.*.U U $.*.*.;.`. X X X X X|._.;.;.`.`.;.<.*.;.`.+X X|.Z.V.=.;.G.c.a.9.7.] G D ] a.c.H.F.Z._.|.+X+X|.Q.d.4.; 6 l OX[.;.#.U Y R ",
"oX*.R Z U U U #.;. X X+X X XoX;.#.#.;.;.#.U U #.;.+XOXA.g 7 | ..a.a.( H H G S S K ( a.i.s g Z.+XXX|.|.`.Q.j., 6 l [.+X`.;.;.*.*.",
" X;.#.Y S B B U $.;._.].L.J.J.%.Y U *.`.#.Y U E >.1.*.@.< 2 x G ] ] D B B S S B B L a.4.t 6 n.XX|.|.XX+X|.V.9 9 @.!.`.OX[.+X+XoX",
"|.`.G.>.Z B B Z U #.!.L.z.f.f.} K U *.+X;.*.*.>.#.U R U b x N S H G S S S S S B S T %.k t # l +X+X`.+X+X_.|.V.@.X.#.;.OXoX+X+X X",
"|.`.!.>.O.Y J J Y X.,.l.f.e.t.a...E >.;.`.`.`.$.U B B B S S S S S S S S S S S B b | ;.l 6 6 C.OX|.~.V.V.{.+X+X1.#.X.@.l l V.{. X",
"|.;.#.E :.=.a.o.%.%.d.t.e.t.c.K.;.*.E #.;.`.#.U S B S S S S S S S S S S S S S x * 7 ;.l 6 6 l OX+XV.9 9 V.+XOX`.;.&.9 # 6 f V. X",
" X;.#.X.%.l.q.a.G.L.v.f.f.d.B.L.|.*.X.#.;.<.U B B S S S S S S S S S S S G H G ! 7 d k k.g d h A.].V.f 9 V.|.V.l l q 7   . 6 l +X",
" X|.;.=.d.q.` X.*.|.U.B.K.c.d.z.J._.;.;._.-.U B B S S S S S S S S S A D { 9.9.a.j.m.d.d.m.h 8 f Z.|.V.V._.V.f # # 7 $ $ o 6 l +X",
"*.;._.U.v.} J U -.oX XoX}.B.f.f.B.oXoX XU.%. .G V S S S S S B S S S D ) 7.e.r.f.k.k.p.z.Q.Z.9 8 h V.].XX+XA.f 6 # 7 I | 7 g V.+X",
"U #.;.[.U.%.Y U ;. X X X}.K.f.f.B.oXoXU.z.w.q.] G S S S S S S S S K ] 7.r.r.r.5.1 f k.Q.XX].Z.h 8 f C.+XXX_.Z.l l C.*.;.n.V.|.].",
"H  .%.U. X;.#.X.%.J.|.|.L.c.t.f.c.J.J.l.t.r.r.9.H S S S S S S S S H 7.e.e.r.r.3.i s V._.V.C.K.k.f 8 h C.C.n.*.1.<.;.`.OX|.].|.|.",
"9.7.s.v.L._.;.,.d.z.L.K.z.t.y.e.f.f.f.f.y.r.r.7.H B S S S S S S B H 7.e.e.e.e.e.3.u.H.z 0 s u.d.m.h 8 # # 7 | W U #.;.[. X+X X|.",
"7.7.e.f.K. X'.c.t.w.l.l.f.e.f.s.y.e.t.t.y.r.r.7.Q m N S S S K H K ( 7.8.7.7.e.r.r.f.U.Z.9 u 4.z.Q.Z.g # # < v b U #.1.+X X X+X].",
"G ( 7.f.J.L.v.t.e.t.t.s.e.f.c.c.f.f.l.l.f.r.r.3.> 2 b B B G { 9.7.0.e.7.( ( 0.r.e.f.J.|.V.C.N.J.]._.Z.l z q < < +.*.`.+X X X+X+X",
"G ( { q.c.c.f.r.e.e.e.r.e.f.c.c.f.f.K.K.s.e.f.u.s 7 b B B L 9.e.e.e.e.[ J H [ e.e.s.%.;._. X X|.].+X X].L.m.f g V.+X+X`.;.=.C.l ",
"7.] ( ` a.f.e.e.e.e.r.r.r.y.f.f.y.f.K.K.f.f.l.H.z @.Y B S H 7.e.e.e.e.9.K K [ e.r.q. .O.;.oX|.|.|.|.|.Q.v.p.k.z (. XOXG.#.| 7 r ",
"e.7.( ( 7.e.e.e.r.r.e.8.3.3.e.r.e.t.c.l.f.f.l.L.].;.| b A H 9.e.e.e.e.7.( ( 7.e.r.7.(  .%.L.|. X|.|.|.K.d.v.L.oX XoXoX*.U b * & ",
"e.e.7.7.8.e.e.e.e.e.e.3.y y 3.r.e.y.s.f.y.e.f.v.'.V.7 2 x H 9.e.e.e.e.8.7.7.e.e.r.e.7.7.w.v.L. X X X|.|.U.U.[.+X[.oX+X*.U N b c ",
"e.8.7.7.8.e.e.y.f.f.y.3.y y 3.e.f.f.e.r.e.r.r.f.c.k # & c H 7.r.e.e.e.e.e.e.e.8.0.7.8.r.r.t.l.K.K.K.B.M.;.;.*.*.;.*.*.$.Y S B B ",
"e.0.( ( 7.r.r.f.l.l.f.e.3.3.e.f.l.c.t.e.e.e.r.e.s.u.t & c G 9.e.e.e.e.e.e.e.e.7.( ( 7.e.e.e.f.f.f.f.f.a. .R R U R R R U Z S S S ",
"7.] _ ( 7.r.r.f.T.l.i.3.e.r.r.s.K.L.z.s.e.e.r.e.f.i.s 5 m G { 7.e.e.e.e.e.e.e.7.( ( 7.8.0.7.8.r.r.r.r.7.( G S B B N B B S S S S ",
"H ( ] 7.8.e.e.e.g.i.y y 3.r.r.f.K.|.'.c.s.r.r.f.l.H.F.@.U S G ) 7.e.e.e.e.e.e.e.7.0.e.7.( ( 7.r.e.e.e.r.7.{ G S B S B B S S S S ",
"B F 7.r.e.e.r.r.6.p y y 3.r.e.f.c.B.K.c.f.e.r.f.c.U. X;.| x A H 7.e.7.q.8.e.e.8.7.7.e.7.( ( 7.e.e.e.e.e.e.9.H S S S S S S S S S ",
"B K 7.e.e.e.r.3.y y p 5.e.e.e.y.g.f.f.f.8.e.e.e.f.v.'.V.7 * x H 7.7.) ( 7.e.e.7.( ( 7.e.7.7.e.e.e.r.e.e.e.7.H S S S S S S S S S ",
"S J a.g.y.y.f.u.y y 3.r.e.e.3.5.i.t.y.e.e.e.e.r.r.s.%.@.7 * b G { ] ( ) 7.e.e.0.( ( 7.e.7.7.7.[ 7.7.r.r.e.7.F A B S S S S S S S ",
"B U %.l.f.f.c.l.4.3.e.r.r.3.y u k.c.w.r.e.e.e.r.r.7. .U m b N N G _ ] 0.e.e.e.e.7.7.8.7.) H H G D ( 7.r.e.7.F A S S S S S S S S ",
"B U :.%.s.t.c.B.d.t.e.e.3.p y s k.B.p.t.t.e.r.y.g.a.H S B A Z B B K ] 7.[ 7.7.7.e.e.e.7.( G G K H _ ] 7.7.] J B B S S S S S S S ",
"B Z U  .q.e.f.d.B.c.g.3.y y p 3.f.d.B.l.f.r.r.f.T.%.W S B B S B A Z G G H F H ( 7.e.e.e.7.7.7.7.9.] ( K K G S S S S S S S S S S ",
"S S B G ] 7.r.f.c.T.v.4.y i 3.e.e.f.K.L.z.t.e.f.k.@.U A S S S S B B S S A A S H 7.e.e.e.e.e.7.7.q.] G B S S S S S S S S B S S S ",
"S S B S D ) 7.e.g.h.B.l.i.3.e.e.r.f.K. X'.c.t.6.u 7 m A B A S S S S S S S B B H [ e.e.e.e.7.' H H G S S S S S S S S S S S S S S ",
"S S S S S G ] 7.7.a.c.c.f.r.r.e.r.t.l.L.V.k.u.p : 2 b A A A S S S S S S S S S K ] 7.7.7.7.] G S S S S S S S S S S S S S S S S S ",
"S S S S S S G H H ( a.f.e.r.r.r.e.y.g.i.s 6 t > 2 b N S S S S S S S S S S S S S K H H J H G S B S S S S S S S S S S S Z B S S S ",
"S S S S S S S B S D { q.s.f.y.e.e.e.7./ 4 & & 2 N S B S S S S S S S S S S S S S A A A A S S S S S S S S S S S S S S S A S S S S ",
"S S S S S S S S S S G  .x.l.f.r.e.7.( D m b m b S S S S B S S S S S S S S S S S B A S B S S B S S S S S S S S S S S A A S S S S ",
"S S S S S S S S B B A R -.L.f.r.e.[ H B S S B S S S S S S S S S S S S S S S S S S S S S S S S S S S S S S S S S S S A B S S S S "
};
