/* XPM */
static char *xpm_[] = {
/* columns rows colors chars-per-pixel */
"64 64 182 2 ",
"   c #1D1D1D",
".  c #201F1C",
"X  c #22211E",
"o  c #1C1E20",
"O  c #201E20",
"+  c #1E2223",
"@  c #242425",
"#  c #282625",
"$  c #252728",
"%  c #282628",
"&  c #272828",
"*  c #292929",
"=  c #282826",
"-  c #312C2A",
";  c #2D3D2E",
":  c #2B302B",
">  c #35302D",
",  c #333434",
"<  c #4C3D33",
"1  c #4B3333",
"2  c #523636",
"3  c #573A36",
"4  c #2E412D",
"5  c #30422E",
"6  c #2E4330",
"7  c #304430",
"8  c #365836",
"9  c #335735",
"0  c #3A683B",
"q  c #4F4035",
"w  c #554133",
"e  c #594536",
"r  c #5A4639",
"t  c #5C4839",
"y  c #574538",
"u  c #54533B",
"i  c #407D3E",
"p  c #476F3F",
"a  c #2E3342",
"s  c #2F364C",
"d  c #30364B",
"f  c #32394E",
"g  c #333A51",
"h  c #383C52",
"j  c #364A4B",
"k  c #344643",
"l  c #3D6C43",
"z  c #3E7D40",
"x  c #3A476C",
"c  c #3C4B76",
"v  c #3F537D",
"b  c #4D4E4E",
"n  c #5A4C42",
"m  c #4C4B52",
"M  c #525252",
"N  c #57585A",
"B  c #5C5C5C",
"V  c #5A5755",
"C  c #4F5050",
"Z  c #744941",
"A  c #7D5741",
"S  c #417E40",
"D  c #477547",
"F  c #566556",
"G  c #74665B",
"H  c #585E6E",
"J  c #575C6B",
"K  c #4A4E77",
"L  c #606060",
"P  c #777777",
"I  c #797979",
"U  c #90534A",
"Y  c #B65656",
"T  c #9D6E4C",
"R  c #9F704F",
"E  c #81634E",
"W  c #A0704F",
"Q  c #A97956",
"!  c #B86257",
"~  c #836F61",
"^  c #83756A",
"/  c #C3725A",
"(  c #E66766",
")  c #E97A67",
"_  c #428342",
"`  c #469246",
"'  c #489948",
"]  c #C68659",
"[  c #C9895C",
"{  c #C8875B",
"}  c #D18B5F",
"|  c #D59466",
" . c #D39F7A",
".. c #C79571",
"X. c #F99B6B",
"o. c #EA9667",
"O. c #F7A165",
"+. c #FBA66A",
"@. c #FFAA6D",
"#. c #FDA466",
"$. c #FBAC74",
"%. c #FFB27A",
"&. c #D3A07C",
"*. c #3D5085",
"=. c #415788",
"-. c #445A99",
";. c #4D6094",
":. c #465FA3",
">. c #4661A6",
",. c #4861A6",
"<. c #4962AA",
"1. c #4761A8",
"2. c #4A65B0",
"3. c #5B69B4",
"4. c #636EBC",
"5. c #4E6EC3",
"6. c #506FC4",
"7. c #4E72CD",
"8. c #5173CE",
"9. c #5375D2",
"0. c #5B77D4",
"q. c #4F73D0",
"w. c #6379D7",
"e. c #657AD8",
"r. c #697BDB",
"t. c #6576CF",
"y. c #697DE0",
"u. c #887BD1",
"i. c #7A81E3",
"p. c #848485",
"a. c #A3A3A4",
"s. c #A8A9AA",
"d. c #B1B1B1",
"f. c #B0ADAC",
"g. c #C79E81",
"h. c #D4A584",
"j. c #FABA8D",
"k. c #F8B586",
"l. c #FCBD91",
"z. c #ECAE82",
"x. c #CABCB2",
"c. c #FFC093",
"v. c #D7C3B5",
"b. c #FCCBA8",
"n. c #F0D2BD",
"m. c #8785E8",
"M. c #9589EF",
"N. c #9C88EA",
"B. c #958AF1",
"V. c #9D8CF3",
"C. c #A38EF6",
"Z. c #A08EF8",
"A. c #AE91FB",
"S. c #B493FF",
"D. c #B995FF",
"F. c #B99AFF",
"G. c #B28FFF",
"H. c #C2A7FF",
"J. c #C5AAFF",
"K. c #C8AFFF",
"L. c #CCCDCD",
"P. c #C3C3C3",
"I. c #CECFD0",
"U. c #CFD0D1",
"Y. c #D1D1D1",
"T. c #DADADB",
"R. c #D9D7D6",
"E. c #FDDAC1",
"W. c #FEEADC",
"Q. c #F4E6DC",
"!. c #D5C2FF",
"~. c #DFD1FF",
"^. c #E0D2FF",
"/. c #FEEEE2",
"(. c #FFF1E5",
"). c #FFF2E8",
"_. c #EEE7FF",
"`. c #EFE8FF",
"'. c #F2ECFF",
"]. c #FFFFFF",
"[. c #F7F6F6",
"{. c None",
/* pixels */
"' ' ' ' ' ' ' ' ` ' ' ' ' ' ' ' ' ' ' ' ' ' ' ' ' ' ' _ 6 $ = $ & = % 4 _ ' ' ' ' ' ' ' ' ' ' ' ' ' ' ' ' ' ' ' ' ` ' ' ' ` ' ' ",
"' ' ' ' ' ' ' ' ' ' ' ' ` ' ' ' ' ' ' ` _ S S S _ S S D k , , a , a a 7 l _ _ _ S S _ _ ' ' ' ' ' ' ' ' ` ' ' ' ' ' ' ' ' ' ' ' ",
"' ' ' ' ' ` ' ' ' ' ` ' ' ' ' ` ' ' ' _ 8 7 7 7 7 5 5 k x c c c c c c x k 5 7 7 7 7 7 8 _ ' ' ' ' ` ' ' ' ' ' ' ' ' ' ' ' ' ' ' ",
"' ` ' ' ' ' ' ' ' ' ' ' ' ' ' ' ' ' ' i 5 # # # # @ # a *.>.>.>.>.>.>.*.a @ # # # # @ 5 S ' ' ' ' ' ' ' ' ' ' ` ' ' ' ` ' ' ` ' ",
"' ' ' ' ' ' ` ' ' ' ' ' ' ' ' ' ' ' ' i 5 @ @ = # # X f -.6.5.3.2.7.6.-.f X # # $ @ @ 4 _ ' ' ' ' ' ' ' ' ' ' ' ' ' ' ` ' ' ` ' ",
"' ' ` ' ' ' ' ' ' ' ' ' ' ' ' ` _ i _ D j g g h h f f c 2.9.8.8.9.9.9.2.x f f f g g f j l i i _ ` ' ' ' ' ' ' ' ' ' ' ' ' ' ' ' ",
"` ' ' ' ' ' ' ' ' ` ' ' ' ' ' _ 8 ; 5 j =.<.,.,.,.,.,.<.6.8.8.8.q.q.7.6.<.>.,.,.1.1.>.*.j 4 ; 8 _ ' ' ' ' ' ' ' ' ' ' ' ' ' ' ' ",
"' ' ' ' ' ` ' ' ' ' ' ' _ S S l k d a x 2.9.9.9.9.9.9.9.e.r.e.e.e.r.r.r.r.r.r.r.0.i.r.3.K a s k D 0 _ ` ` ' ' ' ' ` ' ' ' ` ' ' ",
"' ' ' ' ' ' ' ' ' ' ' _ 8 5 5 j K ;.-.>.5.9.8.8.9.8.9.w.m.M.M.M.M.M.M.M.M.M.M.B.M.B.B.y.3.=.-.*.j 5 5 8 _ ' ' ' ' ' ' ` ' ' ' ' ",
"' ` ' ' ' ' ` ' ' ' ' S 7 # # d -.6.7.5.8.7.8.8.8.7.7.e.M.A.S.A.A.A.A.A.A.A.A.A.A.A.S.V.t.5.5.-.f O # 7 _ ' ' ' ' ' ' ' ' ' ' ' ",
"' ' ' ' ' ' ' ' ' ' ' S ; # # d ,.8.8.8.8.8.8.8.8.7.7.e.V.S.S.S.A.S.S.A.S.A.S.S.S.D.D.V.e.7.5.-.f # # 5 S ' ' ' ' ' ' ' ' ' ` ' ",
"' ' ' ' ` ' ' ' ' ' ' _ 5 # # g ,.9.8.8.8.8.8.0.e.e.e.i.C.F.S.D.S.S.F.F.H.K.K.H.D.G.G.C.i.r.r.3.h # # 7 _ ' ' ' ' ` ' ' ' ' ' ' ",
"` ' ' ' ' ' ' ' ' ' ' S 5 # # d ,.9.9.8.8.6.8.w.m.C.V.C.A.S.S.S.S.S.G.H.~._._.~.H.S.S.A.C.V.A.u.h X # ; S ' ' ' ' ' ' ` ` ' ' ' ",
"' ' ' ' ' ' ' ` _ S _ l j f f x 2.9.8.8.8.8.8.r.C.D.D.D.S.S.S.F.H.J.K.!.'.].].`.!.J.K.H.F.D.D.u.K h d m D S S _ ` ' ' ' ' ' ' ' ",
"' ' ' ` ' ' ' _ 8 7 5 j =.<.:.2.6.8.8.8.8.8.7.r.V.D.D.D.S.S.S.H.~.`._.'.].].].].'._._.~.J.S.D.N.4.1.>.=.j ; ; 8 _ ' ' ' ' ' ' ` ",
"' ' ' ' ' ' ' S 7 # # g <.9.0.9.8.8.8.8.8.8.8.r.V.S.S.S.S.S.S.K.`.].].].].].].].].].].`.K.S.S.V.r.q.0.<.g # # 7 S ' ' ' ' ' ' ' ",
"' ' ` ' ' ' ' S 5 # @ f ,.9.9.9.8.8.8.8.8.8.8.r.V.D.S.S.S.S.S.K.`.].].].].].].].].].].'.K.S.S.V.r.9.9.2.f # # 7 S ' ' ' ' ' ' ' ",
"' ` ' ' ' ' ' S ; @ X f <.0.9.8.8.8.8.8.8.8.8.r.V.D.D.S.S.S.S.J.~._._.'.].].].].'._._.^.J.S.D.V.r.9.9.>.f @ O 5 S ' ' ' ' ' ' ' ",
"' ' ' ' ' ' ' _ ; @ . s <.0.9.9.9.8.8.8.8.8.8.r.C.D.D.D.D.S.S.F.H.K.J.!.`.].].'.!.J.J.H.F.D.D.V.r.9.9.1.f . X 4 S ' ' ' ' ' ' ' ",
"' ' ' ` _ S S D F L B H -.,.,.2.6.8.8.8.8.8.8.e.m.V.C.C.A.S.D.S.S.S.G.H.~._._.~.H.S.G.A.C.C.V.m.3.>.1.;.H B B F D S _ _ ` ' ' ' ",
"' ' ' _ 8 7 ; F s.Y.Y.s.H d f x <.9.8.8.8.8.8.0.e.r.e.i.C.F.S.S.S.S.S.S.H.K.K.H.D.S.S.C.i.r.r.4.c f d J s.Y.Y.s.F ; 4 8 _ ' ' ' ",
"' ' ' _ 7 O O B Y.].].Y.F X X f ,.9.8.8.8.8.8.8.7.7.7.e.V.S.S.F.S.S.S.S.S.S.S.S.S.S.D.B.r.q.q.>.f @ X L Y.].].Y.B O O ; i ' ' ' ",
"' ' ' _ ; . . N Y.].].Y.L X X f ,.9.0.8.8.8.8.8.8.7.7.e.M.A.A.A.S.F.S.S.S.S.S.S.A.A.S.M.r.q.q.1.f X X B Y.].].Y.V O O ; _ ' ' ' ",
"_ ` 0 D B B B P d.Y.Y.a.C # = g <.0.8.8.8.8.8.8.8.8.7.w.m.M.M.N.A.S.S.S.S.S.S.A.V.M.M.m.0.9.9.1.g @ @ M a.Y.Y.d.P V B F D S _ _ ",
"4 4 4 F s.Y.L.d.P V B C , = = h <.0.9.9.q.8.8.8.8.8.8.0.w.e.e.i.C.S.S.D.D.D.D.C.i.e.e.w.0.9.9.<.h = = , C B V P d.I.Y.s.F 4 4 7 ",
"@ @ . B Y.].].Y.V     @ @ = X a *.>.:.2.6.9.9.9.8.8.8.8.7.7.7.r.V.S.S.A.C.V.C.m.w.9.7.6.2.>.>.*.a @ @ @ @     N Y.].].Y.V O @ @ ",
"@ O   B U.].].U.N     @ X @ @ $ a s s x 2.0.9.8.8.8.8.8.8.7.7.r.V.F.D.C.i.r.r.e.9.9.9.2.x a s a & @ @ @ @     N Y.].].Y.V   O @ ",
"J B B P d.Y.U.f.P V B B J B B N N V N J ;.,.,.2.6.8.8.8.8.8.7.r.M.S.S.M.e.7.7.5.2.>.>.;.J N V B B B B B B V N P d.I.Y.d.I B B B ",
"L.L.L.d.I V V P d.L.L.L.L.L.L.L.L.L.L.s.H s d x 2.9.8.8.8.8.7.w.m.Z.V.m.w.8.8.2.x s s H a.L.L.L.L.L.L.L.L.L.L.d.P V V P d.U.L.L.",
"].].].L.V     B U.].].].].].].].].].].Y.B   . f ,.9.9.9.8.9.9.w.i.i.m.i.0.9.9.>.d . . B U.].].].].].].].].].].I.B     b P.].].].",
"{.{.].Y.J     B Y.].].].].].].].].].].U.V     d ,.0.9.9.9.9.9.9.0.i.w.0.0.9.9.1.s .   V U.].].].].].].].].].].Y.B + @ , {.{.].].",
"{.{.].L.L X @ C a.L.L.R.[.[.].[.R.L.L.f.P B B J ;.<.1.1.,.,.,.,.>.:.1.1.1.<.<.;.H B V P d.L.L.R.[.].].[.R.L.L.a.M @ @ , {.{.].].",
"].].].U.B @ @ , b N M p.T.].].T.p.N N P d.U.U.s.H d d g f f h f s j f g g f d H s.I.U.d.P N N p.T.].].T.p.M N b , @ @ M P.].].].",
"L.Y.L.a.C X @ - < w w G f.Y.Y.a.b     B L.].].U.B . O # = @ @ X + + @ # # . . B U.].].Y.V     b a.Y.Y.f.G w w < : @ @ b a.Y.L.L.",
"L B B C > + + < T { { Q G B B b > . . B Y.].].U.B   . # X @ @ @ + @ + @ @ .   B U.].].U.B + @ , b B V G Q [ ] T < + @ , M L B B ",
"@ @ @ , C B B ~ | @.@.[ e + @ @ = $ @ b a.U.I.s.I B F L L L L B L L F L L L B I d.L.I.a.C @ @ @ @ @ @ e [ @.@.| ~ V B b , @ @ @ ",
"@ @ @ b a.U.L.v.k.+.@.[ e @ @ & $ @ $ , b B N P d.Y.Y.Y.Y.Y.Y.Y.Y.Y.Y.Y.Y.Y.Y.d.P N N b , % % O @ @ + t [ @.@.k.v.I.I.a.b @ X @ ",
"* = @ B U.].].Q.h.] [ R q & $ - 1 3 3 < e w w G f.R.U.U.Y.Y.U.Y.Y.Y.Y.Y.L.Y.Y.d.G 3 3 3 3 3 3 2 - & $ q W ] ] h.Q.].].Y.B @ # * ",
"= @ @ B U.].].R.^ e e q > = @ 1 U Y Y ! ! [ ] Q G N B J L L L L L L L L F J B G Q { / / Y Y Y U 1 % $ > q e e ^ R.].].I.F @ # * ",
"* # # V x././.x.V + + = @ @ @ 1 U Y Y / o.X.X.} A w w < * @ @ @ @ @ O - < w w A } $.X.o./ Y Y U 1 @ @ $ & + + V x.).).x.B @ @ * ",
"* * @ n ..c.c...n @ $ @ @ @ @ - 2 2 2 Z / ) ) ) { ] ] T < @ @ @ @ @ @ < R ] ] { ) ) o./ Z 3 3 1 * @ @ @ @ @ + n g.b.b.&.n $ $ & ",
"* = % t [ @.+.[ e + + , b J B M , O + 2 Y ( ( ) X.$.@.[ t @ % & # @ % t } @.@.O.) ( ( Y < + + , C L L C , @ + t [ %.%.} y $ & & ",
"* & @ y [ @.$.[ e     b a.Y.Y.a.m O + 2 Y ( ( ) X.@.$.[ t $ % & & % @ t [ $.@.X.( ( ( Y 1 + o b a.Y.Y.a.b     e [ %.$.[ t $ $ & ",
"* & & q W [ [ Q G N N p.T.].].R.^ 3 3 Z U Y Y ! ] [ [ W < $ @ % % @ @ < R [ [ / Y Y Y U Z w w ^ R.].].T.p.N N G Q [ [ W q & & * ",
"* * & > w t e G f.L.L.R.[.].].Q.h.{ { Q Z 2 2 3 y t t q : @ @ $ @ @ @ - < t t y 3 2 2 Z Q ] { h.Q.].].[.R.L.L.f.G e y q > & * * ",
"* * * * & + + B L.].].].).W.W.E.k.+.@.{ t $ $ % $ + $ * q t t n V B B C , @ $ % % % + y [ @.+.j.E.W.W.).].].].L.B + @ & & & * * ",
"* * * & & @ @ B L.].]./.b.j.j.k.$.@.@.{ n + @ $ % $ $ < W [ ] ..x.U.U.a.C @ @ @ $ $ + y [ @.+.$.k.j.j.b.).].].L.B @ @ & * * * * ",
"* * * * * @ @ B L.].].W.j.O.O.X.+.@.@.] r $ $ $ % $ + e { @.@.l.W.].].L.B @ + @ % $ $ t [ @.@.+.O.X.O.j.W.].].L.B @ & * * * * * ",
"* * * * * & @ B L.].].W.j.O.O.+.+.+.$.[ t $ $ & $ @ + y ] +.#.j.W.].].L.V + + $ & % $ t [ @.@.+.+.+.O.j.W.].].L.B + @ * * * * * ",
"* * * * & @ @ B L.].].W.j.+.+.o.| [ [ W q $ & > q y y E g.c.l.b.).].].R.p.B B M , $ $ q W [ ] } o.+.O.c.W.].].L.N @ @ & & * * * ",
"* * * * $ + + N L.].].W.c.+.@.| A t y q > $ $ q W [ { &.E.Q./.).[.].].[.T.U.U.a.C @ @ > q t y E | +.+.c.Q.].].L.B + + & * * * * ",
"* * * > w y e ~ v././.n. .] ] R < + $ % & & @ t [ @.+.j.E.Q./.).[.].].[.).(.(.v.B @ @ & $ $ + < R ] ]  .n././.v.~ e e q > * * * ",
"* & $ q W [ ] | z.l.c.&.G e e w > $ $ & & % % y [ @.@.$.j.j.j.b.(.].]./.b.c.c...n = = & * & & > q e y G  .j.j.$.| [ [ W q % & & ",
"& % % t [ $.@.@.+.#.@.] e X + = * * & * & & $ t { @.+.+.+.O.O.j.W.].].W.j.#.@.] t @ & & * * * * & + + e ] @.@.#.@.$.@.[ t $ % % ",
"% % @ y [ @.$.@.@.@.@.] y @ @ & * * * * * & % t [ @.@.+.+.+.O.j.W.].].W.j.#.@.[ t @ % & * * * * & @ + t ] @.@.@.@.@.$.[ y $ @ % ",
"6 6 6 u W [ [ ] { ] [ W q & & & * * * * & & % q W [ { } o.+.O.j.W.].].Q.h.] { W q & & & * * * * : = & q W [ ] ] [ ] [ W u 6 6 6 ",
"S S S D u r r r y t t q > % & * * * * * * * * > q y t A } +.O.j.W.].].R.^ w e < > * * * * * * * * * % , < y r r y y y u D i S S ",
"' ' ' _ 9 ; ; ; & @ $ & & * * * * * * * * * * * $ $ + y ] +.+.k.E.W./.x.M @ @ # * * * * * * * * * * * * * $ % & ; 6 4 9 _ ' ' ' ",
"' ' ' ` _ z S 0 ; @ & & * * * * * * * * * * * * & $ + y ] $.+.$.k.l.l...n @ @ & * * * * * * * * * * * & * % @ ; 0 z z _ ' ' ' ' ",
"' ' ' ' ' ' ' _ 6 % % % % % * * * * * * * * * * & $ $ r ] $.$.+.+.+.@.] y $ & * * * * * * * * * * % % % % % % 7 z ' ' ' ' ' ' ' ",
"' ' ' ' ' ' ' S ; % % % % * % % * * * * * * * * & & $ t [ $.@.+.+.@.+.[ y $ % & * * * * * * * * % * % % * % % 7 _ ' ' ' ' ' ' ' ",
"' ' ' ' ' ' ' _ 8 7 7 7 7 7 7 ; : * * * * * * * * & & < R [ ] ] ] ] [ T q % & & * * * * * * * > ; 7 7 7 7 7 7 8 _ ' ` ' ' ' ' ' ",
"' ` ' ' ' ' ' ' _ S S _ _ _ _ 0 ; * * * * * * * * * & , q t t y y t t q > * & * * * * * * % * ; 0 _ _ S _ S S _ ` ' ' ' ' ' ` ' ",
"' ' ' ' ' ' ' ' ' ' ' ' ' ' ' _ 7 % % * * * * * * * * % $ + $ $ + $ @ % & * * * * * * * * % * 7 _ ' ' ' ' ' ' ' ' ' ' ' ' ' ' ' "
};
